<?xml version="1.0" encoding="utf-8"?>
<!-- Generator: Adobe Illustrator 27.9.0, SVG Export Plug-In . SVG Version: 6.00 Build 0)  -->
<svg version="1.1" id="Capa_1" xmlns="http://www.w3.org/2000/svg" xmlns:xlink="http://www.w3.org/1999/xlink" x="0px" y="0px"
	 viewBox="0 0 267.7 303.2" style="enable-background:new 0 0 267.7 303.2;" xml:space="preserve">
<style type="text/css">
	.st0{fill:#FF187C;stroke:#000000;stroke-miterlimit:10;}
</style>
<rect x="424.3" y="39.3" style="fill:none;" width="301.6" height="224.4"/>
<text transform="matrix(1 0 0 1 424.3436 197.1608)"><tspan x="0" y="0" style="fill:#EC7A00; font-family:'Times-Roman'; font-size:190px; letter-spacing:47;">	</tspan><tspan x="94.9" y="0" style="fill:#EC7A00; font-family:'Times-Roman'; font-size:190px;">to</tspan></text>
<path class="st0" d="M104,120.8c-6.1-0.5-11.9-0.7-17.6-1.4c-5.8-0.7-11.7-1.2-17.1-3.1c-7-2.4-7.8-5.7-3.1-11.4
	C76.2,92.6,86.7,80.5,97,68.4c7-8.2,14.1-16.3,20.7-24.8c4.1-5.2,8.7-8,15.6-7.5c14.2,0.9,28.5,1.2,42.7,1.8
	c6.1,0.3,7.1,4.9,7.2,9.4c0.3,8.9,0.4,17.8,0,26.7c-1.5,35.4-3.7,70.7-4.7,106.1c-0.7,24.3-0.3,48.7,0.2,73.1
	c0.2,11-1,13.8-12.8,13.9c-17.1,0.1-34.1-1.1-51.2-1.8c-1.9-0.1-3.7-0.5-5.6-0.7c-12.4-1-15.1-3.1-14.6-15.4
	c1.2-28.1,2.9-56.1,4.9-84.2C100.3,150.6,102.3,136.2,104,120.8z"/>
</svg>
