<?xml version="1.0" encoding="utf-8"?>
<!-- Generator: Adobe Illustrator 27.9.0, SVG Export Plug-In . SVG Version: 6.00 Build 0)  -->
<svg version="1.1" id="Capa_1" xmlns="http://www.w3.org/2000/svg" xmlns:xlink="http://www.w3.org/1999/xlink" x="0px" y="0px"
	 viewBox="0 0 267.7 303.2" style="enable-background:new 0 0 267.7 303.2;" xml:space="preserve">
<style type="text/css">
	.st0{fill:#FF187C;}
</style>
<path class="st0" d="M47.7,124c-4.6-0.4-9-0.5-13.4-1.1c-4.4-0.5-8.9-0.9-13-2.3c-5.3-1.8-5.9-4.3-2.4-8.7
	c7.7-9.4,15.6-18.5,23.4-27.8c5.3-6.3,10.7-12.4,15.8-18.9c3.1-4,6.6-6,11.8-5.7c10.8,0.7,21.7,0.9,32.5,1.4
	c4.6,0.2,5.4,3.7,5.5,7.1c0.2,6.8,0.3,13.6,0,20.3c-1.1,26.9-2.8,53.8-3.6,80.7c-0.5,18.5-0.2,37.1,0.2,55.6
	c0.2,8.4-0.7,10.5-9.8,10.5c-13,0-26-0.8-39-1.4c-1.4-0.1-2.8-0.4-4.2-0.5c-9.4-0.8-11.5-2.4-11.1-11.7c0.9-21.4,2.2-42.7,3.7-64
	C44.9,146.7,46.4,135.8,47.7,124z"/>
<g>
	<path class="st0" d="M250.3,149.2c0.1,16.7-2.1,32.9-9.2,48.2c-8.4,18.1-21.4,31-41.1,36.1c-30.1,7.8-61.5-3.8-75.6-36.6
		c-6-13.9-8.4-28.5-8.8-43.5c-0.5-16.8,0.9-33.4,6.7-49.4c5.5-15,14.2-27.5,28.4-35.7c10.6-6.2,22.1-8.8,34.4-8.2
		c16.4,0.8,30.9,6.3,42.6,18c8.8,8.7,14,19.5,17.4,31.2C249,122.4,250.2,135.7,250.3,149.2z M118.2,147.8c0,2.6-0.1,5.2,0,7.7
		c0.6,13.4,2.7,26.5,7.9,38.9c9.6,22.6,25.9,36.4,50.9,38.6c17.4,1.6,33-3,46.2-14.7c9.7-8.6,15.6-19.7,19.5-31.9
		c4.9-15.1,5.7-30.6,4.8-46.3c-0.7-13.7-2.9-27.1-8.2-39.9c-12.6-30.3-41.2-41.3-68.5-36.6c-21.9,3.8-36.3,17.5-44.7,37.8
		C119.9,116.2,118.1,131.8,118.2,147.8z"/>
	<path class="st0" d="M118.2,147.8c-0.1-15.9,1.7-31.6,7.9-46.4c8.4-20.2,22.8-34,44.7-37.8c27.3-4.7,55.8,6.3,68.5,36.6
		c5.3,12.8,7.5,26.2,8.2,39.9c0.8,15.7,0,31.2-4.8,46.3c-3.9,12.2-9.9,23.2-19.5,31.9C210,230,194.4,234.5,177,233
		c-25-2.2-41.3-16-50.9-38.6c-5.3-12.4-7.3-25.5-7.9-38.9C118.1,152.9,118.2,150.3,118.2,147.8z M163.7,150.1c0,5.4-0.1,10.9,0,16.3
		c0.3,11.9,1,23.8,4.1,35.4c1.3,4.7,2.9,9.2,6.1,12.9c5,5.8,12.6,5.9,17.3-0.1c1.9-2.5,3.4-5.4,4.6-8.4c3-7.7,4.3-15.9,4.9-24.1
		c1.7-21,1.9-42,0.4-63c-0.7-9.4-1.9-18.7-5-27.7c-1.3-3.8-2.9-7.4-5.8-10.3c-4.6-4.7-11.1-4.7-15.4,0.2c-1.8,2.1-3.5,4.6-4.4,7.3
		c-1.8,5.5-3.4,11-4.4,16.7C163.7,120.1,163.6,135.1,163.7,150.1z"/>
	<path class="st0" d="M163.7,150.1c-0.2-15-0.1-30,2.5-44.8c1-5.7,2.6-11.2,4.4-16.7c0.9-2.6,2.5-5.2,4.4-7.3
		c4.3-5,10.8-4.9,15.4-0.2c2.8,2.9,4.5,6.5,5.8,10.3c3.1,9,4.3,18.3,5,27.7c1.5,21,1.2,42-0.4,63c-0.7,8.2-1.9,16.4-4.9,24.1
		c-1.2,2.9-2.6,5.9-4.6,8.4c-4.7,6-12.3,5.9-17.3,0.1c-3.2-3.7-4.9-8.3-6.1-12.9c-3.2-11.6-3.8-23.5-4.1-35.4
		C163.6,161,163.7,155.5,163.7,150.1z M199.6,152c0-4.9,0-8.6,0-12.3c-0.1-13.5-0.8-27-3.7-40.3c-1.1-4.9-2.4-9.7-5.2-14
		c-4.6-7.1-11.3-7-15.7,0.2c-1.4,2.3-2.5,4.9-3.3,7.4c-2.8,8.3-3.9,17-4.5,25.6c-1.5,20.9-1.5,41.9,0,62.8
		c0.6,8.1,1.6,16.1,4.6,23.7c1.2,3,2.8,6,4.9,8.4c3.6,4.2,9.1,4,12.5-0.3c1.8-2.2,3.3-4.7,4.2-7.4c1.6-4.9,2.9-9.9,3.8-14.9
		C199.5,177.7,199.4,164.2,199.6,152z"/>
</g>
</svg>
