<?xml version="1.0" encoding="utf-8"?>
<!-- Generator: Adobe Illustrator 27.9.0, SVG Export Plug-In . SVG Version: 6.00 Build 0)  -->
<svg version="1.1" id="Capa_1" xmlns="http://www.w3.org/2000/svg" xmlns:xlink="http://www.w3.org/1999/xlink" x="0px" y="0px"
	 viewBox="0 0 267.7 303.2" style="enable-background:new 0 0 267.7 303.2;" xml:space="preserve">
<style type="text/css">
	.st0{fill:#FF5A19;stroke:#000000;stroke-miterlimit:10;}
</style>
<path class="st0" d="M103.2,98.5c-11.7-0.5-23.4-1.2-35-1.5c-5.3-0.1-8.3-1.7-7.9-7.7c1.1-14.5,1.8-29.1,3.1-43.5
	c0.2-1.8,3.1-4.7,4.9-4.9c6.1-0.6,12.2-0.4,18.3-0.1c16.4,0.8,32.7,2.1,49.1,2.7c17.5,0.6,35,0.5,52.5,0.9
	c11,0.2,12.5,1.8,12.2,12.8c-0.3,13.5-1,27-1.1,40.5c0,4.4-1.9,6.1-5.8,7.3c-6.1,1.8-12,4.1-19.2,6.5c2.7,1.8,4.1,2.9,5.6,3.7
	c30.7,18.7,44.2,55.6,34,92.7c-9.2,33.5-38,55-74.2,55.2c-35.3,0.1-63.9-12.9-82.4-44c-8.4-14.1-8.4-29.5-4.3-45
	c1.1-4.3,3.7-6.9,8.4-7.1c14.6-0.6,29.1-1.7,43.7-1.8c9.5-0.1,11.7,3.6,10.3,12.8c-0.8,4.7-0.9,9.7-0.3,14.4
	c0.9,7.3,5.7,11.8,12.6,13.9c7,2.2,13.2,0.4,18.2-4.8c9.4-9.6,10.2-21.7,6.7-33.5c-3.5-11.5-13.9-15.7-25-16.4
	c-6.5-0.4-13.3,0.4-19.6,1.9c-4.8,1.1-7.5-0.2-8.9-4.2c-4.2-11.9-8.2-23.8-11.8-35.8c-0.5-1.6,1.8-4.8,3.6-6.1
	c4.1-2.9,8.6-5.1,13-7.6C103.6,99.4,103.4,99,103.2,98.5z"/>
</svg>
