<?xml version="1.0" encoding="utf-8"?>
<!-- Generator: Adobe Illustrator 27.9.0, SVG Export Plug-In . SVG Version: 6.00 Build 0)  -->
<svg version="1.1" id="Capa_1" xmlns="http://www.w3.org/2000/svg" xmlns:xlink="http://www.w3.org/1999/xlink" x="0px" y="0px"
	 viewBox="0 0 267.7 303.2" style="enable-background:new 0 0 267.7 303.2;" xml:space="preserve">
<style type="text/css">
	.st0{fill:#878787;}
</style>
<path class="st0" d="M107.7,134.2c15.8-11.3,33.5-16,52.7-14.5c54.4,4.1,75.4,46.6,60,91.8c-13,37.9-46.2,55.9-86,46.5
	c-44.9-10.6-74.8-37.9-84.5-84c-6.3-29.9,2.5-57.1,19.7-81.5c20.4-28.9,47.8-46.8,83.8-49.7c6.5-0.5,13.2,0.1,19.7,1
	c6.4,0.9,8.3,4.8,7.4,11.1c-1.9,13.7-3.6,27.4-5.1,41.2c-1,9.3-2,10-10.2,6.7c-16.6-6.6-33.9-2.5-46,11.5
	c-4.9,5.7-8.6,12.3-12.8,18.5C106.8,133.3,107.2,133.7,107.7,134.2z M140.5,204.1c14.1-0.7,23.7-3.7,31.2-11.7
	c12.5-13.5,8-31.1-9.6-36.1c-16.1-4.5-30.6-0.1-42.4,11.2c-10.2,9.7-8.1,24.3,4.3,30.9C129.9,201.6,137,203,140.5,204.1z"/>
</svg>
