<?xml version="1.0" encoding="utf-8"?>
<!-- Generator: Adobe Illustrator 27.9.0, SVG Export Plug-In . SVG Version: 6.00 Build 0)  -->
<svg version="1.1" id="Capa_1" xmlns="http://www.w3.org/2000/svg" xmlns:xlink="http://www.w3.org/1999/xlink" x="0px" y="0px"
	 viewBox="0 0 267.7 303.2" style="enable-background:new 0 0 267.7 303.2;" xml:space="preserve">
<style type="text/css">
	.st0{fill:#00FF00;}
</style>
<path class="st0" d="M133.7,104.8c32.7-3,57.6,9.6,74.3,36.8c16.6,27.1,18,55.5,2,83.6c-12.7,22.3-34,32.5-58.1,37.1
	c-22.9,4.4-45.4,2.1-67-7.1c-25.2-10.7-41.2-39-38.9-69.9c1.6-22.6,1.3-17.6,19-20.2c10.4-1.6,21-1,31.6-1.3c5-0.1,8,2.2,9.7,7.3
	c2.2,6.6,5.2,13.1,8.4,19.3c3.5,6.8,9.5,10.8,16.7,13.1c13.1,4.3,24.7-0.8,28.7-12.7c4.2-12.6-1.8-26-14.7-29.1
	c-11-2.6-22.7-2.8-34.1-3.7c-9.4-0.7-18.8-0.8-28.1-1.4c-3.4-0.2-6.7-0.9-7.1-5.9c-3-34.3-1.6-68.5,2.4-102.7
	c0.7-6.2,3.9-8.8,9.6-8.7c37.6,0.6,75.2,1.3,112.8,1.9c6.9,0.1,10.8,3.8,10.6,10.4c-0.3,15.2-0.9,30.5-1.9,45.7
	c-0.4,6.7-5.4,6.7-10.4,5.4c-19.3-4.9-38.7-7.5-58.6-5C133.3,98.6,133,98.9,133.7,104.8z"/>
</svg>
