<?xml version="1.0" encoding="utf-8"?>
<!-- Generator: Adobe Illustrator 27.9.0, SVG Export Plug-In . SVG Version: 6.00 Build 0)  -->
<svg version="1.1" id="Capa_1" xmlns="http://www.w3.org/2000/svg" xmlns:xlink="http://www.w3.org/1999/xlink" x="0px" y="0px"
	 viewBox="0 0 267.7 303.2" style="enable-background:new 0 0 267.7 303.2;" xml:space="preserve">
<style type="text/css">
	.st0{fill:#00FFFF;}
</style>
<path class="st0" d="M132.9,172.2c-31.7,8.8-64.5-9.9-75.6-42.3c-5.2-15.1-6.6-30.4-1.7-45.9c10.1-32.3,42.7-48.4,76.6-37.7
	c6,1.9,11.8,4.4,17.7,6.6c4.2-10.7,4.2-11.1,16.5-10.6c14.9,0.6,29.8,1.8,44.8,2.7c5.8,0.4,6.4,4.1,5.8,8.7
	c-4.4,32.5-8.7,65-13.2,97.5c-4.3,31.7-8.7,63.4-13,95.1c0,0.2,0,0.4,0,0.6c-1.4,15.8-3.4,16.9-18.8,12.9c-6.2-1.6-13-1.2-19.5-1.5
	c-7.8-0.4-15.6-0.6-23.4-0.9c-5-0.2-7-2.9-6.3-7.7c3.1-22.8,6.2-45.5,9.3-68.3C132.5,178.5,132.6,175.6,132.9,172.2z M124,116.4
	c11.5-0.4,22.1-4.9,28.7-16.3c3.9-6.7,4.9-14.2,0.5-21.1c-4.3-6.8-11.5-8.7-18.9-8c-12.3,1.1-22.2,6.9-29.2,17.3
	c-8.2,12.3-1.9,25.9,12.8,27.7C119.5,116.3,121.1,116.3,124,116.4z"/>
</svg>
