<?xml version="1.0" encoding="utf-8"?>
<!-- Generator: Adobe Illustrator 27.9.0, SVG Export Plug-In . SVG Version: 6.00 Build 0)  -->
<svg version="1.1" id="Capa_1" xmlns="http://www.w3.org/2000/svg" xmlns:xlink="http://www.w3.org/1999/xlink" x="0px" y="0px"
	 viewBox="0 0 267.7 303.2" style="enable-background:new 0 0 267.7 303.2;" xml:space="preserve">
<style type="text/css">
	.st0{fill:#A7C87F;}
	.st1{fill:#FFFFFF;}
	.st2{fill:#A7C87F;stroke:#A7C87F;stroke-width:0.75;stroke-miterlimit:10;}
</style>
<g>
	<g id="maguey_2_">
		<path class="st0" d="M100.2,50.2c7,10.5,14,20.5,20.7,30.8c7.3,11.2,11.1,23.8,15.2,36.4c7.3,22.5,11.1,45.6,10.5,69.4
			c-0.2,7.3-1.7,13.9-7.3,19.2c-2.4,2.2-4.1,5.3-6.4,8.4c-1.1-2.7-2.1-5-3.1-7.4c-5.5-13.6-10.9-27.3-16.7-40.8
			c-1.9-4.4-4.4-8.7-7.2-12.6c-5.7-7.9-7.2-16.9-8.6-26.1c-2.1-14.1-3.8-28.3-2.2-42.6C96.4,73.1,98.5,61.5,100.2,50.2z"/>
		<path class="st0" d="M262.8,161.7c-5.7,0.7-11.2,0.7-16.3,2.1c-4.8,1.4-9.9,3.5-13.4,6.8c-7.4,7.1-15.6,13-24.2,18.5
			c-5.8,3.8-11.4,8.5-15.9,13.8c-8.8,10.3-20,15.3-32.8,17.8c-8.3,1.6-16.5,2.1-24.8-0.1c-0.6-0.1-1-0.4-2.1-0.8
			c3.8-4.9,7.4-9.7,11.1-14.3c9.6-12,20.1-22.9,32.8-31.8c12.1-8.4,25.2-13.5,40.1-13.9c13.9-0.4,27.8-1.4,41.6,1
			C260.3,161,261.4,161.4,262.8,161.7z"/>
		<path class="st0" d="M150.2,191.7c-0.4-7.8,0.5-15.4,2.2-23c3-13.6,9-25.9,16.7-37.5c3.7-5.5,8.8-9.1,14.9-11.4
			c9.4-3.6,18.8-7,28.1-11c8.8-3.8,18.1-3.5,27.3-4.3c2.8-0.2,5.5-0.4,8.7-0.7c-3,1.8-5.8,3.3-8.5,5c-2.9,1.9-5.5,4.3-8.5,5.9
			c-2.9,1.6-6.2,2.5-9.4,3.6c-7.4,2.6-12.2,7.7-14.5,15.2c-2.1,7.1-4.3,14.1-6.4,21.3c-0.7,2.6-2.1,4-4.7,4.9
			c-15.1,5.5-27.5,15-38.9,26c-2,1.9-4,3.9-6,5.8C151,191.7,150.7,191.7,150.2,191.7z"/>
		<path class="st0" d="M23.5,147.4c1.8,2.1,4,4,5.2,6.5c2.8,5.8,7,10.3,12,14.1c15.7,11.8,33.4,18.6,53,20.7
			c15.4,1.6,25.8,10.7,33.2,23.6c3.7,6.3,1.4,10-5.8,10.5c-15.5,1-30.1-1.6-43.2-10.9c-8.6-6.1-17.7-11.4-26.5-17.1
			c-4.5-2.9-7.4-7.2-9.4-12.2c-2.7-6.9-6.6-12.9-12.5-17.6c-1.4-1.1-2.7-2.7-3.3-4.4c-1.5-4-2.6-8.1-3.9-12.2
			C22.8,148,23.2,147.7,23.5,147.4z"/>
		<path class="st0" d="M7.5,105.5c6.1,0.9,11.8,1.6,17.3,2.8c2.2,0.5,4.5,1.8,6.2,3.3c4.5,4,9.7,6.1,15.4,7.5
			c13,3.2,25.4,7.9,36.4,15.7c13.3,9.4,22.3,22,28.7,36.7c3.6,8.1,6.8,16.5,10.1,24.7c0.2,0.6,0.4,1.2,0.8,2.8
			c-3.3-2.3-5.9-4.1-8.5-5.9c-5.4-3.9-11.2-7-17.9-7.9c-3.7-0.5-6.1-2.6-8.3-5.6c-10.1-14-20.3-27.8-30.6-41.6
			c-3.7-4.9-8.6-8.3-14.4-10.6c-2.7-1-5.5-2-7.9-3.6c-2.1-1.4-4-3.4-5.2-5.6c-1.7-2.8-3.9-4.2-6.8-4.8
			C17.1,112.4,12.2,109.6,7.5,105.5z"/>
		<path class="st0" d="M199,70.4c-2.9,11-5.8,20.9-12.7,29.2c-2.1,2.6-4.3,5.2-5.9,8.1c-4,7.5-8.2,14.8-14.1,21.2
			c-7.2,7.7-10.5,17.9-14.1,27.6c-0.7,1.7-1.3,3.4-2.6,5.1c-1-5.2-1.9-10.5-3-15.7c-1.4-6.9-3.2-13.7-4.4-20.7
			c-0.4-2.3-0.1-5.2,1.1-7.1c6.5-10,14.8-17.9,25.7-23.1c11-5.3,19.8-13.6,27.9-22.5C197.5,72.1,197.9,71.6,199,70.4z"/>
		<path class="st0" d="M31.5,76.1c0.9,0.5,1.5,0.6,1.7,0.9c6.9,9.3,18,11.3,27.7,15.6c9.4,4.1,19.2,7.6,27.3,14.3
			c1.6,1.3,3,3.6,3.3,5.6c1.5,8.9,2.6,17.8,3.5,27c-10.6-9.7-23.9-14.1-36-20.7c-1.4-0.8-2.8-2.6-3.2-4.2c-2.3-9.7-7.3-17-16.1-21.9
			c-1.9-1-3.5-3.2-4.3-5.1C33.8,84.2,32.9,80.4,31.5,76.1z"/>
		<path class="st0" d="M22.4,132.7c11.9,4.3,23.9,8.6,35.8,13c1.4,0.5,2.8,1.7,3.7,3c7.7,11.2,15.3,22.6,22.9,33.9
			c0.2,0.3,0.2,0.6,0.6,1.5c-5.6-1.7-10.8-3.1-15.9-4.8c-0.9-0.3-1.6-1.6-2.2-2.5c-2.2-3.3-4.5-6.7-6.7-10.1
			c-3.8-6-8.7-10.7-14.9-14.1C36.8,147.5,29.3,140.7,22.4,132.7z"/>
		<path class="st0" d="M204,157.3c1.8-5.9,3.3-11.2,5-16.5c0.3-1,1.3-2.1,2.2-2.5c13.9-6,27.8-11.9,41.7-17.7
			c-3.9,4.3-7.7,8.5-11.5,12.8c-5,5.7-10.1,11.5-15,17.3c-2.9,3.5-6.4,5.5-11,5.7C211.8,156.5,208.3,156.9,204,157.3z"/>
		<path class="st0" d="M187.4,115c9.8-15.9,24.2-25.8,38.2-36.2c-3.9,5.6-7.7,11.1-11.6,16.7c-1.4,2-3,3.9-4,6.1
			c-2,4.8-5.6,7.3-10.4,8.8C195.7,111.6,191.9,113.3,187.4,115z"/>
		<path class="st0" d="M139.1,116.7c-1.2-5.2-3.4-9.7-2.8-13.8c1.1-8.1,4-16,8.7-23.9c0,8.6,0,16.3,0,24
			C145,108,143.6,112.3,139.1,116.7z"/>
		<path class="st0" d="M127.5,71.9c1.3,8.8,7.1,15.8,5.6,24.5C130.1,88.8,122.6,82.3,127.5,71.9z"/>
	</g>
	<path class="st1" d="M49.6,127.1c1.6-0.7,3.3-1,4.9-0.1c2.3,1.2,1.5,3.2,1.1,5c2.4-2.5,5.7-0.5,6.2,1.9c0.2,1.3-0.4,2.5-1.4,3.5
		c-0.9,0.9-2.1,1.4-3.3,1.5c-1.6,0.2-2.9-0.5-3.9-1.7c-1.2-1.5-1-3.1-0.4-4.8c0.2-0.7,0.6-1.4,0.7-2.1c0.3-1.6-1.1-3-2.9-3
		c-0.3,0-0.7,0-1,0C49.6,127.3,49.6,127.2,49.6,127.1z M55.1,133.1c-0.6,0.9-0.3,2,0,2.6c0.7,1.1,1.7,1.5,3,1.1
		c1.1-0.4,2-1.6,1.6-2.7c-0.3-1-1.7-1.6-2.4-1c0.1,0,1,0.1,1.5,0.8c0.4,0.7,0.3,1.4-0.4,1.9c-0.7,0.6-1.4,0.3-1.9,0.1
		C55.7,135.4,55.1,134.5,55.1,133.1z"/>
	<path class="st1" d="M67.2,137.5c0.4,1,0.6,2,0.1,3.1c-0.8,1.4-2,1-3.1,0.7c1.6,1.5,0.4,3.6-1.1,3.9c-0.8,0.2-1.6-0.2-2.2-0.8
		c-0.6-0.6-0.9-1.3-1-2.1c-0.1-1,0.3-1.8,1-2.4c0.9-0.8,2-0.7,3-0.3c0.4,0.1,0.9,0.3,1.3,0.4c1,0.2,1.9-0.7,1.9-1.9
		c0-0.2,0-0.4,0-0.6C67.1,137.5,67.2,137.5,67.2,137.5z M63.5,141c-0.6-0.3-1.2-0.2-1.6,0c-0.7,0.5-0.9,1.1-0.6,1.9
		c0.3,0.7,1,1.2,1.7,1c0.6-0.2,1-1.1,0.6-1.6c0,0.1,0,0.7-0.5,0.9c-0.4,0.3-0.9,0.2-1.2-0.2c-0.3-0.4-0.2-0.9-0.1-1.2
		C62.1,141.4,62.7,141,63.5,141z"/>
	<path class="st1" d="M74.7,162.4c-2.2-1.1-4.1-2.7-4.6-5.3c-0.7-3.7,2.1-4.6,4.6-5.9c-5-0.3-5.8-5.8-3.6-8.6
		c1.2-1.5,3.1-1.9,5.1-1.7c1.8,0.2,3.5,1,4.8,2.2c1.7,1.6,2.1,3.7,1.7,5.8c-0.5,2.7-2.6,4-4.9,4.8c-1,0.3-2,0.7-2.9,1.2
		c-2,1.2-2.3,4-0.6,6c0.3,0.3,0.6,0.8,0.9,1.1C74.9,162.2,74.8,162.3,74.7,162.4z M76.3,150.7c1.4-0.2,2.5-1.4,2.8-2.3
		c0.6-1.8,0.1-3.3-1.6-4.3c-1.5-0.9-3.6-0.7-4.5,0.8c-0.8,1.3-0.2,3.3,1.1,3.7c-0.1-0.1-0.9-1.2-0.5-2.3c0.4-1.2,1.2-1.6,2.4-1.3
		c1.2,0.3,1.7,1.3,1.9,2C78.1,148,77.7,149.6,76.3,150.7z"/>
	<path class="st1" d="M92.8,178.4c-0.3-1.9-0.1-3.8,1.2-5.2c1.9-2.1,3.8-0.7,5.7,0.2c-2-3.2,1-6.3,3.7-6.1c1.5,0.1,2.6,1.1,3.3,2.4
		c0.7,1.2,1,2.6,0.8,4c-0.3,1.8-1.3,3-2.8,3.7c-1.9,0.9-3.6,0.2-5.2-0.9c-0.7-0.4-1.3-1-2-1.3c-1.7-0.8-3.5,0.4-4,2.3
		c-0.1,0.3-0.2,0.7-0.3,1C93.1,178.5,92.9,178.5,92.8,178.4z M100.8,174.2c0.8,0.8,2,0.9,2.7,0.7c1.4-0.5,2.1-1.4,1.9-3
		c-0.1-1.3-1.2-2.6-2.5-2.4c-1.2,0.1-2.1,1.4-1.8,2.3c0-0.1,0.3-1.1,1.2-1.4c0.9-0.3,1.6,0.1,1.9,0.9c0.4,0.9,0,1.6-0.4,2
		C103.3,174.2,102.2,174.6,100.8,174.2z"/>
	<path class="st1" d="M110.9,173.3c1.9,0.5,3.5,1.3,4.3,3.2c1.2,2.6-0.9,3.8-2.4,5.1c3.8-0.6,5.3,3.4,4.1,5.8
		c-0.7,1.3-2,1.9-3.5,2.1c-1.3,0.1-2.8-0.1-3.9-0.9c-1.5-0.9-2.2-2.4-2.3-4.1c-0.1-2.1,1.2-3.4,2.9-4.5c0.7-0.4,1.4-0.8,2-1.3
		c1.3-1.2,1-3.4-0.6-4.6c-0.3-0.2-0.6-0.4-0.8-0.7C110.8,173.4,110.8,173.4,110.9,173.3z M111.6,182.3c-1,0.4-1.7,1.5-1.7,2.2
		c-0.1,1.4,0.5,2.5,1.9,3c1.3,0.4,2.8-0.1,3.2-1.3c0.3-1.1-0.4-2.5-1.4-2.6c0.1,0.1,0.9,0.8,0.8,1.7c-0.1,0.9-0.7,1.4-1.6,1.4
		c-1,0-1.5-0.7-1.7-1.2C110.6,184.6,110.7,183.4,111.6,182.3z"/>
	<path class="st1" d="M95.4,180.2c1.1-0.8,2.3-1.3,3.7-1c2,0.5,1.7,2.1,1.8,3.6c1.3-2.3,4.2-1.4,5,0.3c0.4,1,0.2,2-0.4,2.9
		c-0.5,0.8-1.3,1.4-2.2,1.8c-1.2,0.4-2.3,0.2-3.2-0.5c-1.2-0.9-1.3-2.2-1.2-3.6c0.1-0.6,0.2-1.1,0.1-1.7c-0.1-1.3-1.4-2-2.8-1.7
		c-0.2,0.1-0.5,0.1-0.8,0.2C95.5,180.3,95.5,180.3,95.4,180.2z M100.7,183.7c-0.2,0.8,0.1,1.6,0.5,1.9c0.8,0.7,1.6,0.8,2.5,0.2
		c0.8-0.5,1.2-1.6,0.7-2.3c-0.4-0.7-1.6-0.9-2-0.3c0.1,0,0.8-0.1,1.2,0.3c0.5,0.5,0.5,1,0.1,1.5c-0.4,0.6-1,0.5-1.4,0.4
		C101.6,185.3,100.9,184.7,100.7,183.7z"/>
	<path class="st1" d="M125,197.9c-1,0.9-2.1,1.5-3.6,1.3c-2-0.3-1.9-2-2.1-3.4c-1.1,2.4-4.1,1.8-5,0.2c-0.5-0.9-0.3-1.9,0.1-2.9
		c0.4-0.9,1.1-1.6,2-2c1.1-0.5,2.3-0.4,3.3,0.2c1.3,0.8,1.5,2,1.5,3.4c0,0.6-0.1,1.2,0,1.7c0.2,1.2,1.6,1.9,2.9,1.4
		c0.2-0.1,0.5-0.1,0.7-0.2C124.9,197.8,124.9,197.8,125,197.9z M119.4,194.9c0.2-0.8-0.2-1.6-0.7-1.9c-0.8-0.6-1.7-0.7-2.5,0
		c-0.7,0.6-1,1.7-0.4,2.4c0.5,0.6,1.6,0.7,2.1,0.1c-0.1,0-0.8,0.2-1.3-0.2c-0.5-0.4-0.6-0.9-0.2-1.5c0.4-0.6,1-0.6,1.3-0.6
		C118.4,193.4,119.1,193.9,119.4,194.9z"/>
	<path class="st1" d="M86.6,159.5c-0.1,1.6-0.5,3-1.9,4c-1.9,1.3-3.1-0.1-4.5-1.1c1.1,2.9-1.9,4.8-4,4.3c-1.2-0.3-1.9-1.3-2.2-2.5
		c-0.3-1.1-0.3-2.2,0.1-3.3c0.5-1.3,1.6-2.2,2.9-2.5c1.7-0.4,2.9,0.4,4,1.6c0.4,0.5,0.9,1,1.4,1.4c1.2,0.9,2.9,0.3,3.6-1.2
		c0.1-0.3,0.3-0.5,0.4-0.8C86.5,159.4,86.5,159.4,86.6,159.5z M79.6,161.5c-0.5-0.8-1.5-1.1-2.1-1c-1.2,0.1-1.9,0.8-2,2
		c-0.1,1.1,0.5,2.2,1.6,2.3c0.9,0.1,1.9-0.7,1.8-1.6c0,0.1-0.5,0.8-1.2,0.9c-0.8,0.1-1.2-0.3-1.4-1c-0.1-0.8,0.3-1.3,0.7-1.6
		C77.5,161.1,78.5,161,79.6,161.5z"/>
	<path class="st1" d="M96,146.8c2.1,0.9,3.9,2.2,4.6,4.5c1,3.3-1.6,4.3-3.7,5.7c4.6,0,5.8,4.9,4,7.6c-1,1.5-2.7,2-4.5,1.9
		c-1.6,0-3.2-0.6-4.5-1.7c-1.6-1.3-2.2-3.2-2-5.2c0.3-2.5,2-3.8,4.1-4.8c0.9-0.4,1.8-0.8,2.6-1.3c1.8-1.2,1.8-3.8,0.1-5.5
		c-0.3-0.3-0.6-0.6-0.9-1C95.8,147,95.9,146.9,96,146.8z M95.4,157.5c-1.3,0.3-2.2,1.5-2.4,2.3c-0.4,1.7,0.2,3,1.8,3.8
		c1.4,0.7,3.3,0.3,4-1.1c0.6-1.3-0.1-3-1.3-3.2c0.1,0.1,0.9,1,0.6,2.1c-0.3,1.1-1,1.6-2.1,1.4c-1.2-0.2-1.6-1-1.8-1.7
		C93.9,160.1,94.2,158.7,95.4,157.5z"/>
	<path class="st1" d="M85.4,153.4c-0.7-1.1-1-2.3-0.5-3.6c0.7-1.8,2.2-1.4,3.6-1.3c-2-1.5-0.9-4.1,0.8-4.7c0.9-0.3,1.9,0,2.7,0.7
		c0.7,0.6,1.2,1.4,1.4,2.3c0.3,1.2-0.1,2.2-0.9,3c-1,1-2.2,1-3.5,0.7c-0.5-0.1-1.1-0.3-1.6-0.3c-1.2-0.1-2.1,1.1-1.9,2.4
		c0,0.2,0,0.5,0.1,0.7C85.5,153.4,85.4,153.4,85.4,153.4z M89.3,148.8c0.7,0.3,1.5,0.1,1.9-0.2c0.7-0.6,1-1.4,0.5-2.3
		c-0.4-0.8-1.4-1.3-2.1-0.9c-0.7,0.3-1,1.4-0.5,1.9c0-0.1,0-0.8,0.4-1.1c0.5-0.4,1-0.3,1.4,0.1c0.4,0.5,0.4,1,0.2,1.4
		C90.8,148.2,90.2,148.7,89.3,148.8z"/>
	<path class="st1" d="M80.7,169.4c0.4-0.8,1-1.5,1.9-1.7c1.3-0.2,1.7,0.8,2.1,1.7c0.1-1.8,2.1-2.1,3.1-1.3c0.6,0.4,0.7,1.1,0.6,1.9
		c-0.1,0.7-0.3,1.2-0.8,1.7c-0.6,0.6-1.3,0.8-2.1,0.6c-1-0.2-1.4-0.9-1.8-1.8c-0.1-0.4-0.2-0.8-0.4-1.1c-0.4-0.8-1.4-0.8-2.2-0.2
		c-0.1,0.1-0.3,0.2-0.4,0.3C80.8,169.5,80.7,169.4,80.7,169.4z M84.9,170c0.1,0.5,0.5,0.9,0.9,1c0.7,0.2,1.2,0,1.6-0.6
		c0.3-0.6,0.3-1.3-0.3-1.6c-0.5-0.3-1.2-0.1-1.3,0.4c0,0,0.4-0.3,0.9-0.2c0.4,0.1,0.6,0.4,0.5,0.9c-0.1,0.4-0.5,0.6-0.7,0.7
		C85.9,170.7,85.4,170.5,84.9,170z"/>
	<path class="st1" d="M126.6,176c3.8-0.4,7.3,0.1,10.1,2.9c4,4,1.1,7.5-0.9,11.1c6.6-3.6,12.2,2.6,11.7,7.8c-0.3,2.9-2.4,4.9-5,6.3
		c-2.4,1.2-5.1,1.6-7.8,1.1c-3.4-0.7-5.7-2.9-7-5.9c-1.6-3.9-0.1-7.1,2.2-10.2c1-1.3,2-2.5,2.8-3.9c1.6-3.1-0.4-6.9-4.2-8
		c-0.7-0.2-1.3-0.4-2-0.7C126.5,176.4,126.6,176.2,126.6,176z M134.2,192c-1.7,1.4-2,3.9-1.6,5.2c0.8,2.8,2.6,4.2,5.6,4.1
		c2.6-0.1,5.1-2.1,5-4.7c-0.1-2.3-2.5-4.3-4.4-3.7c0.2,0.1,2.1,0.8,2.6,2.6c0.4,1.8-0.3,3-1.9,3.7c-1.8,0.7-3.2-0.2-4-1
		C134,196.9,133.3,194.7,134.2,192z"/>
	<path class="st1" d="M113.7,111.9c2.3,2.4,3.8,5.1,3.3,8.5c-0.7,4.8-4.6,4.7-8.1,5.2c6,2.6,4.7,9.8,0.7,12.2c-2.2,1.3-4.7,1-7-0.1
		c-2.1-1-3.8-2.7-4.9-4.8c-1.3-2.7-1-5.5,0.4-7.9c1.8-3.1,4.9-3.8,8.2-3.8c1.4,0,2.8,0.1,4.1-0.1c3-0.6,4.6-3.9,3.3-7.1
		c-0.2-0.6-0.4-1.2-0.6-1.8C113.4,112,113.5,111.9,113.7,111.9z M106.7,125.5c-1.9-0.4-3.8,0.7-4.5,1.7c-1.5,2-1.6,4,0.1,6
		c1.5,1.7,4.1,2.4,5.9,1c1.5-1.3,1.7-4,0.2-5c0,0.2,0.6,1.9-0.4,3.1c-1,1.2-2.2,1.4-3.6,0.6c-1.4-0.9-1.5-2.3-1.4-3.2
		C103.2,128,104.3,126.3,106.7,125.5z"/>
	<path class="st1" d="M94.8,67.1c4.4-0.5,8.6,0,11.9,3.3c4.7,4.7,1.3,8.8-1,13c7.6-4.3,14.3,2.9,13.7,9.1c-0.3,3.4-2.8,5.8-5.8,7.4
		c-2.8,1.4-6,2-9.1,1.3c-4-0.8-6.7-3.3-8.2-6.9c-1.9-4.5-0.2-8.3,2.5-11.9c1.1-1.5,2.4-2.9,3.2-4.6c1.9-3.7-0.6-8.1-5-9.4
		c-0.8-0.2-1.6-0.5-2.4-0.8C94.6,67.5,94.7,67.3,94.8,67.1z M103.7,85.7c-1.9,1.7-2.3,4.6-1.8,6.2c1,3.2,3.1,5,6.6,4.7
		c3.1-0.2,6-2.5,5.8-5.5c-0.2-2.7-2.9-5-5.2-4.2c0.2,0.1,2.5,0.9,3,3c0.6,2.1-0.3,3.6-2.2,4.3c-2.1,0.8-3.7-0.2-4.7-1.1
		C103.6,91.5,102.7,88.8,103.7,85.7z"/>
	<path class="st1" d="M117.1,128.6c2.4-2.2,5.1-3.8,8.6-3.2c4.8,0.7,4.7,4.7,5.1,8.2c2.7-5.9,9.8-4.6,12.2-0.6
		c1.3,2.2,0.9,4.7-0.2,7c-1,2.1-2.7,3.8-4.9,4.8c-2.7,1.3-5.5,1-7.9-0.5c-3.1-1.9-3.8-4.9-3.7-8.2c0-1.4,0.1-2.8-0.1-4.1
		c-0.5-3-3.9-4.6-7.1-3.4c-0.6,0.2-1.2,0.4-1.8,0.6C117.2,128.9,117.1,128.7,117.1,128.6z M130.6,135.7c-0.4,1.9,0.7,3.8,1.6,4.5
		c2,1.5,4,1.6,6-0.1c1.7-1.4,2.5-4.1,1-5.8c-1.3-1.5-3.9-1.7-5-0.2c0.2,0,1.9-0.6,3.1,0.4c1.2,1,1.4,2.2,0.6,3.6
		c-0.9,1.4-2.3,1.5-3.2,1.4C133.1,139.3,131.4,138,130.6,135.7z"/>
	<path class="st1" d="M100.1,148.6c3-2.9,6.5-5,10.9-4.4c6.2,0.8,6.1,5.9,6.8,10.4c3.3-7.7,12.5-6.1,15.6-1.1c1.7,2.8,1.3,6-0.1,9
		c-1.2,2.7-3.4,4.9-6.1,6.3c-3.5,1.7-7,1.3-10.2-0.4c-4-2.3-4.9-6.2-5-10.5c0-1.8,0.1-3.6-0.2-5.3c-0.7-3.9-5.1-5.8-9.2-4.2
		c-0.7,0.3-1.5,0.5-2.2,0.8C100.2,149.1,100.2,148.8,100.1,148.6z M117.7,157.5c-0.5,2.4,0.9,4.8,2.2,5.7c2.6,1.9,5.2,2,7.7-0.2
		c2.2-1.9,3.1-5.3,1.2-7.5c-1.7-1.9-5.1-2.1-6.4-0.2c0.2,0,2.4-0.7,4,0.5c1.6,1.3,1.8,2.9,0.8,4.6c-1.1,1.8-2.9,2-4.1,1.9
		C120.9,162,118.7,160.5,117.7,157.5z"/>
	<path class="st1" d="M143.4,146.6c2,1,3.7,2.4,4.2,4.8c0.7,3.3-1.9,4.2-4.1,5.3c4.5,0.3,5.3,5.3,3.3,7.8c-1.1,1.4-2.8,1.7-4.6,1.6
		c-1.6-0.2-3.1-0.9-4.3-2c-1.5-1.5-2-3.3-1.6-5.3c0.4-2.5,2.3-3.7,4.5-4.5c0.9-0.3,1.9-0.6,2.7-1.1c1.9-1.1,2.1-3.7,0.5-5.5
		c-0.3-0.3-0.5-0.7-0.8-1C143.3,146.7,143.4,146.6,143.4,146.6z M142,157.2c-1.3,0.2-2.3,1.3-2.5,2.1c-0.5,1.7-0.1,3,1.5,3.9
		c1.4,0.8,3.3,0.6,4.1-0.7c0.7-1.2,0.1-3-1-3.3c0.1,0.1,0.8,1.1,0.4,2.1c-0.4,1.1-1.1,1.4-2.2,1.2c-1.1-0.3-1.6-1.1-1.7-1.8
		C140.3,159.6,140.7,158.2,142,157.2z"/>
	<path class="st1" d="M130.8,119.6c-3-0.5-5.6-1.7-7.1-4.5c-2.1-4,0.9-6,3.2-8.3c-5.8,1.3-8.7-4.7-7.1-8.6c0.9-2.1,2.9-3.2,5.2-3.7
		c2.1-0.4,4.3-0.1,6.2,0.9c2.4,1.3,3.7,3.5,4,6.1c0.3,3.3-1.6,5.5-4,7.3c-1,0.8-2.1,1.4-3,2.3c-1.9,2-1.2,5.4,1.4,7.1
		c0.5,0.3,0.9,0.7,1.4,1C131,119.3,130.9,119.4,130.8,119.6z M128.6,105.7c1.6-0.7,2.4-2.6,2.4-3.7c0-2.3-1-3.8-3.3-4.4
		c-2-0.5-4.4,0.4-4.9,2.4c-0.4,1.8,0.9,3.8,2.6,3.8c-0.1-0.1-1.4-1.1-1.4-2.5c0.1-1.5,0.9-2.2,2.3-2.4c1.6-0.1,2.3,0.9,2.8,1.6
		C129.8,102,129.9,103.9,128.6,105.7z"/>
	<path class="st1" d="M144.9,90.1c-1-0.2-2-0.6-2.5-1.6c-0.8-1.4,0.3-2.1,1.1-2.9c-2,0.4-3.1-1.7-2.5-3c0.3-0.8,1-1.1,1.8-1.3
		c0.7-0.1,1.5,0,2.2,0.3c0.9,0.4,1.3,1.2,1.4,2.1c0.1,1.2-0.6,1.9-1.4,2.6c-0.3,0.3-0.8,0.5-1,0.8c-0.7,0.7-0.4,1.9,0.5,2.5
		c0.2,0.1,0.3,0.2,0.5,0.3C144.9,90,144.9,90.1,144.9,90.1z M144.1,85.2c0.6-0.2,0.8-0.9,0.8-1.3c0-0.8-0.4-1.3-1.2-1.6
		c-0.7-0.2-1.6,0.2-1.7,0.9c-0.1,0.6,0.3,1.3,0.9,1.3c0,0-0.5-0.4-0.5-0.9c0-0.5,0.3-0.8,0.8-0.8c0.6,0,0.8,0.3,1,0.6
		C144.5,83.9,144.6,84.6,144.1,85.2z"/>
	<path class="st1" d="M143.4,93.6c-0.7,0.4-1.3,0.6-2.1,0.3c-1.1-0.4-0.8-1.3-0.8-2.1c-0.9,1.2-2.4,0.6-2.8-0.5
		c-0.2-0.6,0-1.1,0.4-1.6c0.3-0.4,0.8-0.7,1.3-0.9c0.7-0.2,1.3,0.1,1.8,0.5c0.6,0.6,0.6,1.3,0.4,2.1c-0.1,0.3-0.2,0.6-0.2,0.9
		c0,0.7,0.7,1.2,1.4,1.1C143.1,93.5,143.2,93.5,143.4,93.6C143.4,93.5,143.4,93.5,143.4,93.6z M140.7,91.3c0.2-0.4,0-0.9-0.1-1.1
		c-0.4-0.4-0.8-0.6-1.4-0.3c-0.5,0.2-0.8,0.8-0.5,1.3c0.2,0.4,0.8,0.6,1.1,0.3c0,0-0.4,0-0.7-0.2c-0.2-0.3-0.2-0.6,0-0.8
		c0.3-0.3,0.6-0.2,0.8-0.1C140.3,90.3,140.6,90.7,140.7,91.3z"/>
	<path class="st1" d="M143.4,99.3c-0.5-0.4-0.8-1-0.7-1.7c0.1-1,0.9-1,1.6-1.1c-1.2-0.5-1-1.9-0.2-2.4c0.4-0.3,0.9-0.2,1.4,0
		c0.4,0.2,0.8,0.5,1,0.9c0.3,0.6,0.2,1.1,0,1.6c-0.3,0.7-1,0.8-1.6,0.8c-0.3,0-0.6,0-0.8,0.1c-0.6,0.1-0.9,0.8-0.6,1.4
		c0,0.1,0.1,0.2,0.1,0.3C143.5,99.3,143.4,99.3,143.4,99.3z M144.7,96.5c0.4,0.1,0.8-0.2,0.9-0.4c0.3-0.4,0.3-0.8-0.1-1.2
		c-0.3-0.3-0.9-0.4-1.2-0.1c-0.3,0.3-0.3,0.8,0,1c0,0-0.1-0.4,0.1-0.6c0.2-0.3,0.4-0.3,0.7-0.1c0.3,0.2,0.3,0.4,0.3,0.7
		C145.4,96,145.2,96.3,144.7,96.5z"/>
	<path class="st1" d="M137.8,92.3c0.4-0.1,0.7,0,1,0.2c0.4,0.4,0.2,0.7,0,1.1c0.6-0.4,1.2,0.2,1.2,0.7c0,0.3-0.2,0.5-0.4,0.7
		c-0.2,0.1-0.5,0.2-0.8,0.2c-0.3,0-0.6-0.2-0.7-0.5c-0.2-0.4-0.1-0.7,0.1-1c0.1-0.1,0.2-0.2,0.2-0.4c0.1-0.3-0.1-0.7-0.5-0.8
		C137.9,92.4,137.8,92.4,137.8,92.3C137.8,92.3,137.8,92.3,137.8,92.3z M138.6,93.7c-0.1,0.1-0.2,0.4-0.1,0.5
		c0.1,0.3,0.3,0.4,0.6,0.3c0.2,0,0.5-0.2,0.4-0.5c0-0.2-0.3-0.4-0.4-0.3c0,0,0.2,0.1,0.3,0.2c0.1,0.2,0,0.3-0.2,0.4
		c-0.2,0.1-0.3,0-0.4-0.1C138.7,94.2,138.6,94,138.6,93.7z"/>
	<path class="st1" d="M136.7,105.2c-0.7-0.8-1.1-1.6-1-2.7c0.3-1.5,1.5-1.4,2.6-1.6c-1.8-0.9-1.3-3.1-0.1-3.8
		c0.7-0.4,1.4-0.2,2.2,0.1c0.6,0.3,1.2,0.9,1.4,1.6c0.4,0.9,0.3,1.7-0.2,2.4c-0.6,1-1.6,1.1-2.6,1.1c-0.4,0-0.9-0.1-1.3,0
		c-0.9,0.1-1.4,1.2-1.1,2.2c0.1,0.2,0.1,0.4,0.2,0.6C136.8,105.1,136.7,105.2,136.7,105.2z M139,101c0.6,0.1,1.2-0.2,1.4-0.5
		c0.5-0.6,0.5-1.2,0-1.9c-0.4-0.6-1.3-0.8-1.8-0.3c-0.5,0.4-0.6,1.2-0.1,1.6c0-0.1-0.2-0.6,0.2-1c0.3-0.4,0.7-0.4,1.1-0.1
		c0.4,0.3,0.4,0.7,0.4,1C140.1,100.3,139.7,100.8,139,101z"/>
	<path class="st1" d="M139,116c-0.4-0.3-0.7-0.7-0.6-1.3c0-0.8,0.7-0.8,1.2-0.9c-0.9-0.3-0.8-1.4-0.3-1.9c0.3-0.2,0.7-0.2,1.1-0.1
		c0.3,0.1,0.6,0.3,0.8,0.7c0.2,0.4,0.2,0.8,0,1.2c-0.2,0.5-0.7,0.7-1.2,0.7c-0.2,0-0.4,0-0.6,0.1c-0.4,0.1-0.7,0.7-0.4,1.1
		C139,115.8,139,115.9,139,116C139.1,116,139.1,116,139,116z M139.9,113.9c0.3,0,0.6-0.2,0.7-0.3c0.2-0.3,0.2-0.7-0.1-0.9
		c-0.2-0.2-0.7-0.3-0.9-0.1c-0.2,0.2-0.2,0.6,0,0.8c0,0-0.1-0.3,0-0.5c0.1-0.2,0.3-0.2,0.6-0.1c0.2,0.1,0.3,0.3,0.3,0.5
		C140.5,113.4,140.3,113.7,139.9,113.9z"/>
	<path class="st1" d="M140.4,106.3c0.2,0.7,0.3,1.4-0.1,2.1c-0.6,1-1.4,0.6-2.2,0.3c1,1.1,0,2.5-1,2.7c-0.6,0.1-1.1-0.2-1.5-0.7
		c-0.3-0.4-0.6-0.9-0.6-1.5c0-0.7,0.3-1.3,0.9-1.7c0.7-0.5,1.4-0.3,2.1,0c0.3,0.1,0.6,0.3,0.9,0.4c0.7,0.2,1.3-0.4,1.4-1.2
		c0-0.1,0-0.3,0-0.4C140.3,106.3,140.4,106.3,140.4,106.3z M137.6,108.5c-0.3-0.3-0.9-0.2-1.1-0.1c-0.5,0.3-0.7,0.7-0.6,1.3
		c0.1,0.5,0.7,0.9,1.1,0.8c0.4-0.1,0.7-0.7,0.5-1c0,0-0.1,0.4-0.4,0.6c-0.3,0.2-0.6,0.1-0.8-0.2c-0.2-0.3-0.1-0.6,0-0.8
		C136.6,108.7,137,108.5,137.6,108.5z"/>
	<path class="st1" d="M143.5,106.4c0.6,0.3,1,0.8,1.1,1.4c0.1,1-0.6,1.1-1.2,1.4c1.3,0.1,1.4,1.6,0.8,2.2c-0.3,0.4-0.8,0.4-1.3,0.4
		c-0.4-0.1-0.9-0.3-1.2-0.6c-0.4-0.4-0.5-1-0.4-1.5c0.2-0.7,0.7-1,1.3-1.2c0.3-0.1,0.6-0.1,0.8-0.3c0.6-0.3,0.6-1,0.2-1.6
		c-0.1-0.1-0.1-0.2-0.2-0.3C143.5,106.4,143.5,106.4,143.5,106.4z M143,109.4c-0.4,0-0.7,0.3-0.8,0.6c-0.2,0.4-0.1,0.9,0.4,1.1
		c0.4,0.2,0.9,0.2,1.2-0.1c0.2-0.3,0.1-0.8-0.2-1c0,0,0.2,0.3,0.1,0.6s-0.3,0.4-0.7,0.3c-0.3-0.1-0.4-0.3-0.4-0.5
		C142.5,110.1,142.6,109.7,143,109.4z"/>
	<path class="st1" d="M146.9,102.9c-0.1,0.7-0.4,1.3-1.1,1.7c-1,0.5-1.4-0.2-2-0.8c0.3,1.4-1.2,2.1-2.1,1.7
		c-0.5-0.2-0.8-0.7-0.9-1.3c-0.1-0.5,0-1,0.2-1.5c0.3-0.6,0.9-0.9,1.5-0.9c0.8-0.1,1.3,0.4,1.7,1c0.2,0.2,0.3,0.5,0.6,0.7
		c0.5,0.5,1.3,0.3,1.7-0.3C146.7,103,146.8,102.9,146.9,102.9C146.8,102.8,146.9,102.8,146.9,102.9z M143.6,103.3
		c-0.2-0.4-0.6-0.6-0.9-0.6c-0.6,0-0.9,0.2-1.1,0.8c-0.1,0.5,0.1,1,0.6,1.2c0.4,0.1,0.9-0.2,0.9-0.6c0,0-0.3,0.3-0.6,0.3
		c-0.3,0-0.5-0.2-0.6-0.6c0-0.4,0.2-0.6,0.4-0.7C142.7,103,143.2,103,143.6,103.3z"/>
	<path class="st1" d="M105.4,101.5c1.4,1.7,2.3,3.7,1.8,5.9c-0.7,3.2-3.4,2.9-5.8,3.1c3.9,2.1,2.6,6.8-0.2,8.2
		c-1.5,0.8-3.2,0.4-4.7-0.5c-1.3-0.8-2.4-2-3-3.5c-0.8-1.9-0.4-3.8,0.7-5.3c1.4-2,3.5-2.3,5.7-2.1c0.9,0.1,1.9,0.2,2.8,0.1
		c2.1-0.2,3.3-2.4,2.6-4.6c-0.1-0.4-0.2-0.8-0.3-1.2C105.2,101.6,105.3,101.6,105.4,101.5z M100,110.3c-1.2-0.3-2.6,0.3-3.1,0.9
		c-1.1,1.3-1.3,2.7-0.2,4c0.9,1.2,2.7,1.9,3.9,1c1.1-0.8,1.3-2.6,0.4-3.3c0,0.1,0.3,1.3-0.4,2.1c-0.8,0.8-1.6,0.8-2.4,0.2
		c-0.9-0.7-0.9-1.6-0.8-2.2C97.5,111.8,98.4,110.8,100,110.3z"/>
	<path class="st1" d="M150.1,180.2c-1.4,0.9-2.9,1.3-4.5,0.7c-2.3-0.8-1.8-2.7-1.7-4.5c-1.9,2.6-5.2,1.2-6-0.9
		c-0.4-1.2,0-2.4,0.8-3.4c0.7-0.9,1.7-1.6,2.9-1.9c1.4-0.4,2.8,0.1,3.8,1c1.3,1.2,1.3,2.8,1,4.4c-0.1,0.7-0.3,1.3-0.4,2
		c0,1.5,1.4,2.6,3.1,2.3c0.3,0,0.6-0.1,0.9-0.1C150,180,150.1,180.1,150.1,180.2z M144.2,175.3c0.4-0.9,0-1.9-0.3-2.3
		c-0.8-0.9-1.8-1.2-2.9-0.6c-1,0.6-1.6,1.8-1.1,2.8c0.5,0.9,1.8,1.2,2.4,0.6c-0.1,0-1,0.1-1.5-0.5c-0.5-0.6-0.4-1.2,0.1-1.8
		c0.6-0.6,1.3-0.5,1.7-0.3C143.3,173.4,144,174.1,144.2,175.3z"/>
	<path class="st1" d="M117.3,179.8c0.7-1,1.5-1.7,2.7-1.8c1.8-0.1,2,1.3,2.4,2.4c0.5-2.3,3.1-2.3,4.2-1.2c0.6,0.7,0.7,1.6,0.5,2.4
		c-0.2,0.8-0.7,1.6-1.3,2.1c-0.9,0.7-1.8,0.8-2.8,0.4c-1.2-0.4-1.7-1.4-1.9-2.6c-0.1-0.5-0.2-1-0.3-1.4c-0.4-1-1.7-1.3-2.7-0.6
		c-0.2,0.1-0.4,0.2-0.6,0.3C117.3,179.9,117.3,179.8,117.3,179.8z M122.6,181.2c0,0.7,0.5,1.2,0.9,1.4c0.8,0.4,1.5,0.2,2.1-0.5
		c0.5-0.7,0.6-1.6-0.1-2.1c-0.6-0.4-1.5-0.3-1.8,0.3c0.1,0,0.6-0.3,1.1-0.1c0.5,0.2,0.7,0.7,0.5,1.2c-0.2,0.6-0.7,0.7-1,0.7
		C123.7,182.2,123,181.9,122.6,181.2z"/>
	<path class="st1" d="M178.2,146.3c-0.8,2-2,3.6-4.2,4.2c-3.1,0.9-4-1.5-5.3-3.5c0,4.2-4.6,5.3-7.1,3.7c-1.4-0.9-1.8-2.6-1.8-4.2
		c0-1.5,0.6-3,1.6-4.2c1.3-1.5,3-2,4.8-1.8c2.3,0.3,3.6,1.9,4.5,3.9c0.4,0.8,0.7,1.7,1.2,2.4c1.1,1.7,3.6,1.7,5.1,0.1
		c0.3-0.3,0.6-0.6,0.9-0.8C178.1,146.1,178.2,146.2,178.2,146.3z M168.2,145.6c-0.3-1.2-1.4-2.1-2.2-2.2c-1.6-0.3-2.8,0.1-3.6,1.7
		c-0.7,1.3-0.4,3.1,1,3.8c1.2,0.6,2.8-0.1,3-1.2c-0.1,0.1-1,0.8-2,0.6c-1-0.3-1.4-1-1.3-2c0.2-1.1,1-1.5,1.6-1.7
		C165.8,144.2,167.1,144.5,168.2,145.6z"/>
	<path class="st1" d="M236.9,110.6c-0.8,2-2,3.6-4.2,4.2c-3.1,0.9-4-1.5-5.3-3.5c0,4.2-4.6,5.3-7.1,3.7c-1.4-0.9-1.8-2.6-1.8-4.2
		c0-1.5,0.6-3,1.6-4.2c1.3-1.5,3-2,4.8-1.8c2.3,0.3,3.6,1.9,4.5,3.9c0.4,0.8,0.7,1.7,1.2,2.4c1.1,1.7,3.6,1.7,5.1,0.1
		c0.3-0.3,0.6-0.6,0.9-0.8C236.7,110.4,236.8,110.5,236.9,110.6z M226.9,110c-0.3-1.2-1.4-2.1-2.2-2.2c-1.6-0.3-2.8,0.1-3.6,1.7
		c-0.7,1.3-0.4,3.1,1,3.8c1.2,0.6,2.8-0.1,3-1.2c-0.1,0.1-1,0.8-2,0.6c-1-0.3-1.4-1-1.3-2c0.2-1.1,1-1.5,1.6-1.7
		C224.4,108.5,225.8,108.8,226.9,110z"/>
	<path class="st1" d="M212.5,123.4c-1.6,1.8-3.4,3.1-5.9,3c-3.6-0.1-3.7-3-4.4-5.5c-1.4,4.5-6.7,4.1-8.7,1.4c-1.1-1.4-1-3.3-0.4-5
		c0.6-1.6,1.7-3,3.1-3.9c1.9-1.2,3.9-1.1,5.7-0.3c2.4,1.1,3.1,3.2,3.3,5.6c0.1,1,0.1,2,0.4,3c0.6,2.1,3.2,3,5.4,1.9
		c0.4-0.2,0.8-0.4,1.2-0.6C212.4,123.2,212.4,123.3,212.5,123.4z M202.2,119.4c0.1-1.4-0.8-2.7-1.6-3.1c-1.6-0.9-3-0.8-4.3,0.6
		c-1.1,1.2-1.4,3.2-0.3,4.3c1,1,3,0.9,3.6-0.2c-0.1,0-1.3,0.6-2.3-0.1c-1-0.6-1.2-1.5-0.7-2.5c0.6-1.1,1.5-1.3,2.2-1.3
		C200.1,117.1,201.4,117.8,202.2,119.4z"/>
	<path class="st1" d="M179.7,141c-2.1-1.6-3.8-3.5-3.9-6.3c-0.1-4,3-4.4,5.8-5.3c-5.1-1.2-5.1-7.1-2.3-9.6c1.6-1.4,3.6-1.4,5.6-0.9
		c1.8,0.5,3.5,1.6,4.6,3.1c1.4,2,1.6,4.2,0.8,6.4c-1,2.8-3.3,3.8-6,4.2c-1.1,0.2-2.2,0.3-3.3,0.7c-2.3,0.9-3.1,3.8-1.6,6.2
		c0.2,0.4,0.5,0.9,0.7,1.3C179.9,140.9,179.8,141,179.7,141z M183.3,129.2c1.6,0,2.9-1.1,3.3-2c0.9-1.8,0.7-3.5-1-4.8
		c-1.4-1.2-3.7-1.3-4.8,0.1c-1,1.2-0.8,3.4,0.6,4c0-0.1-0.7-1.4-0.1-2.6c0.6-1.1,1.6-1.4,2.8-1c1.3,0.5,1.6,1.6,1.6,2.4
		C185.8,126.7,185.1,128.2,183.3,129.2z"/>
	<path class="st1" d="M193.1,135.7c0.7-2.1,1.8-3.9,3.9-4.7c3.1-1.2,4.2,1.2,5.7,3.1c-0.4-4.3,4.2-5.9,6.9-4.4
		c1.5,0.8,2.1,2.4,2.2,4.1c0.1,1.6-0.3,3.1-1.2,4.4c-1.2,1.7-2.9,2.4-4.8,2.3c-2.4,0-3.8-1.6-4.9-3.6c-0.4-0.8-0.9-1.7-1.4-2.4
		c-1.3-1.6-3.8-1.4-5.3,0.4c-0.3,0.3-0.6,0.6-0.8,0.9C193.3,135.9,193.2,135.8,193.1,135.7z M203.4,135.4c0.4,1.2,1.6,2,2.4,2.1
		c1.7,0.2,2.9-0.4,3.5-2c0.5-1.4,0.1-3.2-1.3-3.8c-1.2-0.5-2.9,0.3-3,1.5c0.1-0.1,0.9-0.9,2-0.8c1.1,0.2,1.6,0.9,1.5,1.9
		c-0.1,1.1-0.9,1.6-1.4,1.9C206,136.6,204.6,136.5,203.4,135.4z"/>
	<path class="st1" d="M196.1,144.2c1.1-0.6,2.2-0.9,3.3-0.3c1.7,0.7,1.2,2.1,1.1,3.4c1.5-1.9,3.9-0.7,4.4,0.9
		c0.3,0.9-0.1,1.8-0.7,2.5c-0.6,0.7-1.3,1.1-2.2,1.3c-1.1,0.2-2-0.2-2.8-0.9c-0.9-1-0.9-2.1-0.6-3.3c0.1-0.5,0.3-1,0.3-1.5
		c0.1-1.1-1-2-2.2-1.9c-0.2,0-0.4,0-0.7,0C196.1,144.3,196.1,144.3,196.1,144.2z M200.2,148c-0.3,0.6-0.1,1.4,0.2,1.8
		c0.6,0.7,1.3,0.9,2.1,0.6c0.8-0.3,1.3-1.2,0.9-2c-0.3-0.7-1.2-1-1.8-0.6c0.1,0,0.7,0,1.1,0.4c0.3,0.5,0.3,0.9-0.1,1.3
		c-0.4,0.4-1,0.3-1.3,0.2C200.8,149.5,200.3,148.9,200.2,148z"/>
	<path class="st1" d="M211.1,115.8c0.9-0.8,2-1.3,3.2-1c1.8,0.4,1.6,1.8,1.7,3.1c1.1-2.1,3.7-1.4,4.5,0.1c0.4,0.8,0.2,1.8-0.2,2.6
		c-0.4,0.8-1.1,1.3-1.9,1.7c-1,0.4-2,0.2-2.9-0.3c-1.1-0.8-1.3-1.9-1.2-3.1c0-0.5,0.1-1,0.1-1.5c-0.1-1.1-1.3-1.8-2.6-1.4
		c-0.2,0.1-0.4,0.1-0.7,0.2C211.2,115.9,211.2,115.8,211.1,115.8z M216,118.7c-0.2,0.7,0.2,1.4,0.5,1.7c0.7,0.6,1.4,0.7,2.2,0.1
		c0.7-0.5,1-1.4,0.5-2.1c-0.4-0.6-1.4-0.7-1.8-0.2c0.1,0,0.7-0.2,1.1,0.2c0.4,0.4,0.4,0.9,0.1,1.3c-0.4,0.5-0.9,0.5-1.2,0.4
		C216.8,120.1,216.2,119.6,216,118.7z"/>
	<path class="st1" d="M184.7,135.6c3.5,1.2,6.4,3.2,7.7,6.8c1.8,5.2-2.2,7-5.5,9.4c7.3-0.4,9.6,7.4,6.9,11.8c-1.5,2.4-4.2,3.3-7,3.4
		c-2.6,0.1-5.2-0.7-7.3-2.3c-2.7-2-3.8-5-3.6-8.1c0.2-4.1,2.9-6.3,6.2-8c1.4-0.7,2.9-1.3,4.1-2.2c2.8-2.1,2.6-6.2-0.3-8.8
		c-0.5-0.4-1-1-1.5-1.4C184.4,135.9,184.6,135.7,184.7,135.6z M184.6,152.8c-2.1,0.6-3.4,2.6-3.6,3.9c-0.4,2.8,0.5,4.8,3.2,5.9
		c2.3,1,5.4,0.3,6.3-2c0.9-2.1-0.3-4.8-2.3-5.1c0.1,0.2,1.5,1.6,1.2,3.3c-0.4,1.8-1.5,2.6-3.3,2.4c-1.9-0.2-2.7-1.5-3.1-2.5
		C182.3,157.1,182.7,154.8,184.6,152.8z"/>
	<path class="st1" d="M158.2,184.1c-2.9-2-5.1-4.5-5.3-8.1c-0.3-5.2,3.8-5.9,7.3-7.2c-6.8-1.4-6.9-9.1-3.4-12.5c2-1.8,4.6-2,7.3-1.3
		c2.4,0.6,4.6,2,6.1,4c2,2.6,2.2,5.5,1.3,8.3c-1.2,3.7-4.2,5-7.7,5.7c-1.4,0.3-2.9,0.5-4.3,1c-3,1.2-3.9,5.1-1.9,8.1
		c0.3,0.6,0.7,1.1,1,1.7C158.5,183.9,158.4,184,158.2,184.1z M162.5,168.4c2,0,3.8-1.5,4.3-2.7c1.1-2.4,0.8-4.6-1.4-6.2
		c-1.9-1.5-4.8-1.6-6.3,0.2c-1.3,1.7-0.9,4.5,0.9,5.2c-0.1-0.2-1-1.9-0.2-3.3c0.8-1.5,2-2,3.6-1.4c1.7,0.7,2.1,2.1,2.2,3.1
		C165.6,165.1,164.8,167.1,162.5,168.4z"/>
	<path class="st1" d="M137.7,225.1c-1.7-3.6-2.3-7.3-0.5-11c2.7-5.2,7.1-3.5,11.3-2.8c-5.8-5.3-1.5-12.9,3.9-14.1
		c3-0.7,5.7,0.7,7.9,2.9c2,1.9,3.3,4.5,3.7,7.4c0.4,3.6-1,6.6-3.5,8.8c-3.3,2.9-7,2.4-10.8,1.2c-1.6-0.5-3.1-1.2-4.8-1.4
		c-3.7-0.6-6.7,2.7-6.6,6.8c0,0.7,0,1.5,0,2.2C138.1,225.1,137.9,225.1,137.7,225.1z M150.9,212.4c2,1.2,4.5,0.7,5.7-0.2
		c2.4-1.7,3.3-4,2.2-6.9c-1-2.5-3.8-4.4-6.3-3.4c-2.2,0.9-3.4,3.9-2.2,5.6c0-0.2,0.1-2.4,1.7-3.4c1.6-1,3.1-0.7,4.3,0.7
		c1.2,1.6,0.8,3.2,0.3,4.2C155.9,210.9,153.9,212.3,150.9,212.4z"/>
	<path class="st1" d="M172.7,194.5c2.9,0.1,5.5,0.8,7.3,3.2c2.5,3.4,0,5.7-1.9,8.2c5.3-2,8.8,3.2,7.9,7.1c-0.5,2.1-2.3,3.5-4.4,4.2
		c-1.9,0.7-4,0.7-6,0c-2.5-0.9-4-2.8-4.6-5.1c-0.8-3.1,0.7-5.3,2.8-7.4c0.9-0.9,1.8-1.7,2.5-2.6c1.6-2.2,0.4-5.2-2.3-6.5
		c-0.5-0.2-1-0.5-1.4-0.7C172.6,194.7,172.7,194.6,172.7,194.5z M176.7,207.2c-1.4,0.9-1.9,2.7-1.8,3.8c0.3,2.1,1.5,3.5,3.8,3.7
		c2,0.2,4.1-1,4.2-3c0.1-1.7-1.4-3.5-2.9-3.2c0.1,0.1,1.5,0.8,1.7,2.2c0.1,1.4-0.5,2.2-1.8,2.6c-1.4,0.3-2.3-0.5-2.9-1.1
		C176,210.9,175.8,209.1,176.7,207.2z"/>
	<path class="st1" d="M169.1,200.3c-2.1-0.8-3.9-2.1-4.7-4.4c-1.1-3.2,1.4-4.2,3.4-5.6c-4.5,0.1-5.9-4.8-4.2-7.4
		c0.9-1.4,2.6-1.9,4.3-1.9c1.6,0,3.2,0.6,4.5,1.6c1.7,1.3,2.3,3.1,2.2,5.1c-0.2,2.5-1.8,3.8-3.9,4.7c-0.9,0.4-1.8,0.7-2.5,1.2
		c-1.7,1.2-1.6,3.7,0.1,5.4c0.3,0.3,0.6,0.6,0.9,0.9C169.2,200.2,169.1,200.3,169.1,200.3z M169.2,189.8c1.3-0.3,2.1-1.5,2.2-2.3
		c0.3-1.7-0.3-3-1.9-3.7c-1.4-0.7-3.3-0.3-3.9,1c-0.6,1.2,0.2,2.9,1.4,3.2c-0.1-0.1-0.9-1-0.7-2.1c0.2-1.1,0.9-1.5,2-1.4
		c1.1,0.2,1.7,1,1.9,1.6C170.5,187.3,170.3,188.7,169.2,189.8z"/>
	<path class="st1" d="M190,167c1.1,1.9,1.6,3.9,0.8,5.9c-1.2,3-3.7,2.2-6,2c3.3,2.6,1.4,6.9-1.5,7.8c-1.6,0.5-3.1-0.1-4.4-1.2
		c-1.2-1-2-2.3-2.3-3.8c-0.4-1.9,0.2-3.7,1.5-5c1.7-1.7,3.7-1.7,5.8-1.1c0.9,0.2,1.8,0.5,2.7,0.6c2,0.1,3.5-1.8,3.2-4
		c0-0.4-0.1-0.8-0.1-1.2C189.8,167,189.9,167,190,167z M183.4,174.5c-1.1-0.6-2.5-0.2-3.1,0.3c-1.2,1-1.6,2.3-0.9,3.8
		c0.7,1.3,2.2,2.2,3.6,1.6c1.2-0.6,1.7-2.2,0.9-3.1c0,0.1,0.1,1.3-0.8,1.9c-0.8,0.6-1.7,0.6-2.3-0.2c-0.8-0.8-0.6-1.7-0.4-2.3
		C180.8,175.5,181.8,174.7,183.4,174.5z"/>
	<path class="st1" d="M213.6,188.4c-1.3-1.7-2.2-3.6-1.7-5.8c0.7-3.1,3.3-2.8,5.6-2.9c-3.7-2-2.4-6.6,0.2-8c1.5-0.7,3.1-0.3,4.5,0.5
		c1.3,0.8,2.3,2,2.9,3.4c0.7,1.9,0.3,3.6-0.7,5.1c-1.4,1.9-3.4,2.2-5.6,2c-0.9-0.1-1.8-0.2-2.7-0.1c-2,0.2-3.2,2.3-2.6,4.5
		c0.1,0.4,0.2,0.8,0.3,1.2C213.8,188.3,213.7,188.3,213.6,188.4z M219,179.9c1.2,0.3,2.5-0.2,3-0.8c1.1-1.2,1.2-2.6,0.3-3.9
		c-0.9-1.2-2.6-1.8-3.8-1c-1.1,0.8-1.3,2.5-0.4,3.2c0-0.1-0.2-1.3,0.4-2c0.7-0.8,1.6-0.8,2.3-0.2c0.9,0.7,0.9,1.6,0.7,2.2
		C221.4,178.5,220.5,179.5,219,179.9z"/>
	<path class="st1" d="M220.4,156.7c0.9,1.2,1.4,2.4,1,3.9c-0.7,2.1-2.4,1.9-4.1,1.9c2.6,1.4,1.5,4.6-0.4,5.4
		c-1.1,0.5-2.2,0.2-3.2-0.4c-0.9-0.6-1.6-1.4-2-2.4c-0.4-1.3-0.1-2.5,0.7-3.5c1.1-1.3,2.5-1.4,4.1-1.3c0.7,0.1,1.3,0.2,1.9,0.1
		c1.4-0.1,2.4-1.5,2-3c-0.1-0.3-0.1-0.6-0.2-0.8C220.2,156.8,220.3,156.7,220.4,156.7z M216.2,162.4c-0.8-0.3-1.8,0.1-2.2,0.5
		c-0.8,0.8-1,1.7-0.3,2.7c0.6,0.8,1.8,1.3,2.7,0.7c0.8-0.5,1-1.7,0.4-2.2c0,0.1,0.1,0.9-0.4,1.3c-0.6,0.5-1.1,0.5-1.7,0.1
		c-0.6-0.5-0.6-1.1-0.4-1.5C214.4,163.4,215.1,162.7,216.2,162.4z"/>
	<path class="st1" d="M225.6,167.6c0.1-2.2,0.9-4.3,2.9-5.5c2.9-1.8,4.7,0.4,6.7,2c-1.5-4.3,2.9-6.8,6.1-5.8
		c1.8,0.6,2.8,2.1,3.3,3.8c0.5,1.6,0.4,3.2-0.2,4.7c-0.8,1.9-2.4,3-4.4,3.3c-2.6,0.4-4.4-0.9-6-2.7c-0.7-0.7-1.3-1.5-2.1-2.1
		c-1.8-1.4-4.3-0.7-5.4,1.4c-0.2,0.4-0.4,0.7-0.7,1.1C225.8,167.7,225.7,167.6,225.6,167.6z M236.2,165.3c0.7,1.2,2.2,1.7,3.1,1.6
		c1.8-0.1,2.9-1,3.1-2.7c0.2-1.6-0.7-3.3-2.3-3.6c-1.4-0.2-2.9,0.9-2.7,2.1c0.1-0.1,0.7-1.1,1.8-1.1c1.2,0,1.8,0.6,2.1,1.6
		c0.2,1.1-0.5,1.8-1,2.2C239.2,166.1,237.8,166.2,236.2,165.3z"/>
	<path class="st1" d="M183.2,193.9c0.8-3.1,2.2-5.7,5.3-7.1c4.3-1.9,6.2,1.4,8.4,4c-0.9-6.2,5.7-8.8,9.6-6.8
		c2.2,1.1,3.1,3.3,3.4,5.8c0.2,2.2-0.3,4.5-1.5,6.5c-1.6,2.5-4,3.6-6.7,3.7c-3.5,0.1-5.6-2.1-7.3-4.8c-0.7-1.1-1.3-2.3-2.2-3.3
		c-2-2.2-5.5-1.7-7.6,0.9c-0.4,0.5-0.8,0.9-1.1,1.4C183.4,194.1,183.3,194,183.2,193.9z M197.9,192.8c0.6,1.7,2.5,2.7,3.6,2.8
		c2.4,0.2,4.1-0.8,4.9-3.1c0.7-2.1-0.1-4.6-2.2-5.3c-1.8-0.6-4.1,0.7-4.2,2.3c0.1-0.1,1.3-1.4,2.8-1.2c1.6,0.2,2.3,1.1,2.3,2.6
		c0,1.6-1.1,2.4-1.9,2.8C201.8,194.4,199.8,194.3,197.9,192.8z"/>
	<path class="st1" d="M50.9,186.6c2-2.9,4.5-5.1,8.1-5.3c5.2-0.3,6,3.8,7.4,7.3c1.3-6.8,9.1-7,12.6-3.4c1.9,2,2.1,4.6,1.5,7.3
		c-0.6,2.4-1.9,4.6-3.9,6.1c-2.5,2-5.5,2.2-8.4,1.3c-3.7-1.2-5.1-4.2-5.9-7.7c-0.3-1.4-0.6-2.9-1.1-4.3c-1.3-3-5.2-3.9-8.2-1.9
		c-0.6,0.3-1.1,0.7-1.7,1C51.1,186.9,51,186.8,50.9,186.6z M66.8,191c0,2,1.6,3.8,2.8,4.3c2.4,1.1,4.6,0.8,6.2-1.4
		c1.4-1.9,1.6-4.8-0.3-6.3c-1.7-1.3-4.5-0.9-5.2,0.9c0.2-0.1,1.9-1,3.3-0.2c1.6,0.8,2,2,1.5,3.6c-0.6,1.7-2,2.1-3.1,2.2
		C70.2,194.1,68.2,193.2,66.8,191z"/>
	<path class="st1" d="M98.5,192.2c-0.8,1.4-1.9,2.5-3.5,2.7c-2.4,0.3-2.9-1.5-3.6-3c-0.4,3.1-3.9,3.5-5.6,2c-0.9-0.8-1.1-2-0.9-3.2
		c0.2-1.1,0.7-2.1,1.6-2.9c1.1-1,2.4-1.2,3.8-0.9c1.7,0.4,2.5,1.7,2.9,3.2c0.2,0.7,0.3,1.3,0.7,1.9c0.7,1.3,2.5,1.6,3.8,0.6
		c0.2-0.2,0.5-0.3,0.7-0.5C98.4,192.1,98.5,192.2,98.5,192.2z M91.2,190.9c-0.1-0.9-0.9-1.6-1.4-1.8c-1.1-0.4-2.1-0.1-2.8,0.9
		c-0.6,0.9-0.6,2.2,0.4,2.8c0.8,0.5,2.1,0.2,2.3-0.6c-0.1,0-0.8,0.5-1.5,0.2c-0.7-0.3-1-0.8-0.8-1.6c0.2-0.8,0.9-1,1.3-1.1
		C89.5,189.7,90.5,190,91.2,190.9z"/>
	<path class="st1" d="M101,202.8c-0.8-1.4-1.1-2.9-0.4-4.4c1-2.2,2.8-1.6,4.5-1.4c-2.4-2-0.9-5.2,1.2-5.8c1.2-0.3,2.3,0.1,3.2,0.9
		c0.9,0.7,1.4,1.7,1.7,2.9c0.3,1.4-0.2,2.7-1.2,3.7c-1.3,1.2-2.8,1.2-4.3,0.8c-0.7-0.2-1.3-0.4-2-0.4c-1.5-0.1-2.6,1.3-2.5,2.9
		c0,0.3,0,0.6,0,0.9C101.1,202.8,101,202.8,101,202.8z M106,197.3c0.8,0.4,1.8,0.1,2.3-0.2c1-0.8,1.2-1.7,0.7-2.8
		c-0.5-1-1.6-1.7-2.6-1.2c-0.9,0.4-1.3,1.7-0.8,2.3c0-0.1,0-1,0.6-1.4c0.6-0.4,1.2-0.4,1.8,0.2c0.6,0.6,0.4,1.3,0.2,1.7
		C108,196.6,107.2,197.2,106,197.3z"/>
	<path class="st1" d="M90.7,214.7c0.7-1.9,1.9-3.6,4-4.2c3-0.9,4,1.3,5.3,3.2c-0.2-4.1,4.3-5.3,6.8-3.8c1.4,0.9,1.9,2.4,1.9,4
		c0,1.4-0.5,2.9-1.4,4.1c-1.2,1.5-2.9,2.1-4.7,1.9c-2.3-0.2-3.6-1.7-4.5-3.6c-0.4-0.8-0.7-1.6-1.2-2.3c-1.2-1.6-3.5-1.5-5,0.1
		c-0.3,0.3-0.6,0.6-0.8,0.8C90.9,214.8,90.8,214.8,90.7,214.7z M100.5,215c0.3,1.2,1.4,1.9,2.2,2.1c1.6,0.3,2.8-0.2,3.4-1.7
		c0.6-1.3,0.2-3-1.1-3.6c-1.2-0.5-2.7,0.1-2.9,1.2c0.1-0.1,0.9-0.8,1.9-0.6c1,0.2,1.4,0.9,1.3,1.9c-0.1,1.1-0.9,1.5-1.4,1.7
		C102.9,216.2,101.6,216,100.5,215z"/>
	<path class="st1" d="M43.3,177.5c1-0.4,2.1-0.6,3.1,0c1.5,0.8,0.9,2.1,0.7,3.3c1.6-1.6,3.7-0.2,4,1.3c0.2,0.9-0.3,1.6-0.9,2.2
		c-0.6,0.6-1.3,0.9-2.1,0.9c-1,0.1-1.9-0.4-2.5-1.1c-0.8-1-0.6-2-0.2-3.1c0.2-0.4,0.4-0.9,0.4-1.3c0.2-1-0.7-2-1.9-2
		c-0.2,0-0.4,0-0.6,0C43.3,177.6,43.3,177.6,43.3,177.5z M46.8,181.5c-0.3,0.6-0.2,1.3,0,1.6c0.4,0.7,1.1,1,1.9,0.7
		c0.7-0.2,1.3-1,1-1.8c-0.2-0.7-1.1-1-1.6-0.7c0.1,0,0.7,0.1,0.9,0.5c0.3,0.5,0.2,0.9-0.2,1.2c-0.5,0.3-0.9,0.2-1.2,0
		C47.1,182.9,46.8,182.3,46.8,181.5z"/>
	<path class="st1" d="M44,127c-1.7,0.6-3.3,0.7-4.8-0.4c-2.2-1.4-1.2-3.3-0.7-5.1c-2.6,2.2-5.7,0-6-2.4c-0.1-1.3,0.6-2.4,1.6-3.3
		c0.9-0.8,2.1-1.2,3.4-1.2c1.6,0,2.9,0.8,3.7,2c1.1,1.6,0.7,3.2,0,4.8c-0.3,0.7-0.7,1.3-0.9,2c-0.4,1.6,0.9,3.1,2.7,3.2
		c0.3,0,0.7,0.1,1,0.1C44,126.8,44,126.9,44,127z M39,120.5c0.6-0.8,0.5-2,0.2-2.5c-0.6-1.2-1.6-1.7-2.9-1.3
		c-1.2,0.3-2.1,1.4-1.8,2.6c0.3,1,1.5,1.7,2.3,1.2c-0.1,0-1-0.2-1.4-0.9c-0.4-0.8-0.2-1.4,0.5-1.8c0.8-0.5,1.4-0.2,1.9,0.1
		C38.6,118.2,39.2,119.2,39,120.5z"/>
	<path class="st1" d="M76.3,139.3c-1.7,0.6-3.4,0.7-5-0.4c-2.2-1.6-1.2-3.6-0.7-5.6c-2.7,2.4-5.9,0-6.2-2.7
		c-0.1-1.4,0.6-2.7,1.7-3.6c1-0.8,2.2-1.3,3.5-1.3c1.7,0,2.9,0.9,3.8,2.2c1.1,1.7,0.8,3.5,0,5.2c-0.3,0.7-0.7,1.4-0.9,2.2
		c-0.4,1.7,0.9,3.3,2.8,3.5c0.3,0,0.7,0.1,1,0.1C76.3,139.1,76.3,139.2,76.3,139.3z M71.2,132.2c0.6-0.9,0.5-2.1,0.2-2.8
		c-0.7-1.3-1.6-1.8-3-1.4c-1.2,0.3-2.2,1.6-1.8,2.8c0.3,1.1,1.6,1.9,2.4,1.3c-0.1,0-1.1-0.2-1.4-1c-0.4-0.8-0.2-1.5,0.5-2
		c0.8-0.5,1.5-0.2,1.9,0.1C70.8,129.8,71.3,130.8,71.2,132.2z"/>
	<path class="st1" d="M57.3,124.3c-0.7,0.8-1.5,1.3-2.6,1.2c-1.6-0.2-1.6-1.4-1.9-2.6c-0.6,2-2.9,1.6-3.8,0.4
		c-0.5-0.7-0.4-1.5-0.2-2.2c0.2-0.7,0.7-1.3,1.4-1.6c0.8-0.4,1.7-0.4,2.5,0c1,0.6,1.3,1.5,1.4,2.6c0,0.4,0.1,0.9,0.2,1.3
		c0.3,1,1.4,1.4,2.3,1c0.2-0.1,0.3-0.1,0.5-0.2C57.3,124.2,57.3,124.2,57.3,124.3z M52.9,122.2c0.1-0.6-0.3-1.2-0.7-1.4
		c-0.7-0.4-1.3-0.4-1.9,0.1c-0.5,0.5-0.6,1.4-0.1,1.9c0.4,0.5,1.3,0.5,1.6,0c-0.1,0-0.6,0.2-1-0.1c-0.4-0.3-0.5-0.7-0.3-1.1
		c0.2-0.5,0.7-0.5,1-0.5C52,121.1,52.5,121.5,52.9,122.2z"/>
	<path class="st1" d="M28.9,111.7c-0.5,0.6-1.1,1-1.9,0.9c-1.1-0.1-1.2-1.1-1.4-1.9c-0.5,1.4-2.2,1.2-2.8,0.3
		c-0.3-0.5-0.3-1.1-0.1-1.7c0.2-0.5,0.6-0.9,1-1.2c0.6-0.3,1.2-0.3,1.8,0c0.8,0.4,1,1.1,1.1,1.9c0,0.3,0,0.7,0.1,1
		c0.2,0.7,1,1,1.7,0.7c0.1-0.1,0.3-0.1,0.4-0.2C28.9,111.6,28.9,111.7,28.9,111.7z M25.6,110.2c0-0.4-0.2-0.9-0.5-1.1
		c-0.5-0.3-1-0.3-1.4,0.1c-0.4,0.4-0.5,1-0.1,1.4c0.3,0.3,1,0.3,1.2,0c0,0-0.4,0.1-0.7-0.1c-0.3-0.2-0.4-0.5-0.2-0.9
		c0.2-0.3,0.5-0.4,0.7-0.4C24.9,109.3,25.4,109.6,25.6,110.2z"/>
	<path class="st1" d="M27.6,116.7c0-0.6,0.1-1.2,0.6-1.6c0.7-0.6,1.3-0.1,1.9,0.3c-0.6-1.1,0.6-1.9,1.4-1.8c0.5,0.1,0.8,0.4,1,0.9
		c0.2,0.4,0.2,0.8,0.1,1.3c-0.1,0.6-0.6,0.9-1.1,1c-0.7,0.2-1.2-0.1-1.7-0.5c-0.2-0.2-0.4-0.3-0.6-0.5c-0.5-0.3-1.2,0-1.4,0.6
		c0,0.1-0.1,0.2-0.1,0.3C27.6,116.7,27.6,116.7,27.6,116.7z M30.4,115.7c0.2,0.3,0.7,0.4,0.9,0.3c0.5-0.1,0.8-0.4,0.8-0.8
		c0-0.4-0.3-0.9-0.8-0.9c-0.4,0-0.8,0.3-0.7,0.7c0,0,0.2-0.3,0.4-0.4c0.3,0,0.5,0.1,0.6,0.3c0.1,0.3-0.1,0.5-0.2,0.6
		C31.2,115.8,30.8,115.9,30.4,115.7z"/>
	<path class="st1" d="M10.9,107.6c0.8-0.9,1.8-1.5,3.1-1.3c1.9,0.2,1.9,1.8,2.2,3.2c0.8-2.3,3.6-1.9,4.6-0.3
		c0.6,0.8,0.5,1.8,0.1,2.7c-0.3,0.8-0.9,1.5-1.7,1.9c-1,0.5-2,0.4-3-0.1c-1.2-0.7-1.6-1.9-1.7-3.2c0-0.6,0-1.1-0.1-1.6
		c-0.3-1.2-1.6-1.8-2.8-1.3c-0.2,0.1-0.4,0.2-0.7,0.2C11,107.8,11,107.7,10.9,107.6z M16.3,110.3c-0.1,0.7,0.3,1.4,0.8,1.7
		c0.8,0.6,1.6,0.6,2.3-0.1c0.6-0.6,0.8-1.6,0.2-2.3c-0.5-0.6-1.6-0.6-1.9-0.1c0.1,0,0.7-0.2,1.2,0.1c0.5,0.4,0.6,0.9,0.3,1.4
		c-0.3,0.6-0.8,0.6-1.2,0.6C17.3,111.7,16.6,111.3,16.3,110.3z"/>
	<path class="st1" d="M22,146.1c0.8-0.2,1.6-0.2,2.2,0.3c1,0.8,0.4,1.6,0.1,2.4c1.3-1,2.7,0.2,2.7,1.3c0,0.6-0.3,1.1-0.9,1.5
		c-0.5,0.3-1,0.5-1.6,0.4c-0.8,0-1.3-0.5-1.7-1.1c-0.4-0.8-0.2-1.5,0.2-2.2c0.2-0.3,0.3-0.6,0.5-0.9c0.2-0.7-0.3-1.5-1.1-1.6
		c-0.1,0-0.3-0.1-0.4-0.1C22,146.2,22,146.1,22,146.1z M24.1,149.3c-0.3,0.3-0.3,0.9-0.2,1.2c0.2,0.6,0.7,0.8,1.3,0.7
		c0.6-0.1,1-0.6,0.9-1.1c-0.1-0.5-0.7-0.9-1.1-0.7c0,0,0.5,0.1,0.6,0.5c0.1,0.4,0,0.7-0.3,0.9c-0.4,0.2-0.7,0-0.9-0.1
		C24.2,150.4,24,149.9,24.1,149.3z"/>
	<path class="st1" d="M25.7,157.9c0.7-0.7,1.4-1.2,2.5-1.2c1.5,0.1,1.5,1.3,1.8,2.3c0.7-1.8,2.9-1.6,3.7-0.4
		c0.4,0.6,0.4,1.4,0.1,2.1c-0.2,0.7-0.7,1.2-1.3,1.6c-0.8,0.4-1.6,0.4-2.4,0c-1-0.5-1.3-1.4-1.3-2.4c0-0.4,0-0.8-0.1-1.2
		c-0.2-0.9-1.3-1.3-2.2-0.9c-0.2,0.1-0.3,0.1-0.5,0.2C25.8,158,25.7,158,25.7,157.9z M30,159.7c-0.1,0.6,0.3,1.1,0.6,1.3
		c0.7,0.4,1.3,0.4,1.8-0.1c0.5-0.5,0.7-1.3,0.2-1.8c-0.4-0.4-1.2-0.4-1.5,0c0.1,0,0.6-0.2,0.9,0.1c0.4,0.3,0.5,0.7,0.3,1.1
		c-0.2,0.4-0.7,0.5-0.9,0.5C30.8,160.7,30.3,160.4,30,159.7z"/>
	<path class="st1" d="M42.1,194.3c0.5-1.8,1.3-3.3,3.1-4c2.5-1.1,3.6,0.8,4.9,2.3c-0.5-3.6,3.3-5,5.6-3.8c1.3,0.7,1.8,1.9,2,3.3
		c0.1,1.3-0.2,2.6-0.9,3.7c-0.9,1.4-2.3,2-3.9,2.1c-2,0-3.2-1.2-4.2-2.8c-0.4-0.7-0.8-1.3-1.3-1.9c-1.1-1.3-3.2-1-4.4,0.5
		c-0.2,0.3-0.4,0.5-0.7,0.8C42.3,194.4,42.2,194.4,42.1,194.3z M50.7,193.7c0.3,1,1.4,1.6,2.1,1.6c1.4,0.1,2.4-0.4,2.8-1.8
		c0.4-1.2,0-2.7-1.2-3c-1.1-0.3-2.4,0.3-2.4,1.3c0.1-0.1,0.8-0.8,1.6-0.7c0.9,0.1,1.3,0.7,1.3,1.5c0,0.9-0.7,1.4-1.1,1.6
		C52.9,194.7,51.8,194.6,50.7,193.7z"/>
	<path class="st1" d="M55.4,181c-1.1,0.3-2.1,0.4-3.1-0.3c-1.4-0.9-0.7-2.1-0.4-3.2c-1.7,1.4-3.7-0.1-3.8-1.6
		c-0.1-0.8,0.4-1.5,1.1-2c0.6-0.5,1.4-0.7,2.2-0.7c1,0,1.8,0.5,2.3,1.3c0.7,1,0.4,2-0.1,3c-0.2,0.4-0.4,0.8-0.6,1.2
		c-0.3,1,0.5,1.9,1.7,2.1c0.2,0,0.4,0.1,0.6,0.1C55.5,180.9,55.4,180.9,55.4,181z M52.4,176.9c0.4-0.5,0.3-1.2,0.1-1.6
		c-0.4-0.7-1-1.1-1.8-0.9c-0.7,0.2-1.3,0.9-1.2,1.6c0.2,0.7,1,1.1,1.5,0.8c-0.1,0-0.7-0.1-0.9-0.6c-0.2-0.5-0.1-0.9,0.3-1.1
		c0.5-0.3,0.9-0.1,1.2,0.1C52.1,175.4,52.4,176,52.4,176.9z"/>
	<path class="st1" d="M117.1,203.3c-0.1,1.1-0.4,2.2-1.5,2.8c-1.5,0.9-2.4-0.2-3.5-1c0.8,2.2-1.5,3.5-3.1,2.9
		c-0.9-0.3-1.4-1-1.7-1.9c-0.2-0.8-0.2-1.6,0.1-2.4c0.4-1,1.2-1.5,2.3-1.7c1.3-0.2,2.2,0.4,3.1,1.3c0.3,0.4,0.7,0.8,1.1,1.1
		c0.9,0.7,2.2,0.3,2.8-0.7c0.1-0.2,0.2-0.4,0.3-0.6C117,203.2,117,203.2,117.1,203.3z M111.6,204.4c-0.3-0.6-1.1-0.9-1.6-0.8
		c-0.9,0-1.5,0.5-1.6,1.4c-0.1,0.8,0.3,1.7,1.2,1.8c0.7,0.1,1.5-0.4,1.4-1.1c0,0-0.4,0.6-1,0.6s-0.9-0.3-1-0.8
		c-0.1-0.6,0.2-0.9,0.6-1.1C110.1,204,110.8,204,111.6,204.4z"/>
	<path class="st1" d="M93.1,202.1c-0.1,2.6-0.9,4.9-3.1,6.5c-3.2,2.2-5.2-0.1-7.4-1.8c1.7,4.8-3.1,7.9-6.6,7c-1.9-0.5-3.1-2.1-3.7-4
		c-0.6-1.7-0.5-3.6,0.1-5.4c0.8-2.2,2.6-3.6,4.8-4.1c2.8-0.7,4.8,0.7,6.7,2.6c0.8,0.8,1.4,1.7,2.3,2.3c2,1.4,4.7,0.4,5.9-2
		c0.2-0.4,0.4-0.9,0.7-1.3C92.8,202,93,202,93.1,202.1z M81.5,205.5c-0.8-1.3-2.4-1.7-3.4-1.6c-2,0.2-3.2,1.3-3.4,3.3
		c-0.2,1.8,0.8,3.7,2.6,3.8c1.6,0.2,3.2-1.2,3-2.6c-0.1,0.1-0.8,1.3-2,1.4c-1.3,0.1-2-0.5-2.3-1.7c-0.2-1.3,0.5-2.1,1.1-2.6
		C78.1,204.9,79.7,204.7,81.5,205.5z"/>
	<path class="st1" d="M126.7,220.1c-1.7,0.9-3.6,1.4-5.5,0.6c-2.7-1.2-2-3.4-1.7-5.5c-2.5,3-6.4,1.1-7.1-1.5c-0.4-1.4,0.2-2.8,1.2-4
		c0.9-1,2.2-1.8,3.6-2c1.8-0.3,3.3,0.3,4.5,1.5c1.5,1.6,1.4,3.4,0.9,5.3c-0.2,0.8-0.5,1.6-0.6,2.4c-0.2,1.8,1.6,3.2,3.6,3
		c0.4,0,0.7,0,1.1-0.1C126.7,219.9,126.7,220,126.7,220.1z M119.9,213.9c0.5-1,0.2-2.2-0.2-2.8c-0.9-1.2-2.1-1.5-3.5-0.9
		c-1.2,0.6-2.1,2-1.5,3.2c0.5,1.1,2,1.6,2.8,0.9c-0.1,0-1.2,0-1.7-0.7c-0.6-0.8-0.4-1.5,0.2-2.1c0.8-0.7,1.6-0.5,2.1-0.3
		C119.1,211.5,119.9,212.4,119.9,213.9z"/>
	<g>
		<path class="st2" d="M110.7,253.5h-2.3l-1.6-4.6h-7.1l-1.6,4.6h-2.2l6-16.6h2.9L110.7,253.5z M106.1,247l-2.9-8.1l-2.9,8.1H106.1z
			"/>
		<path class="st2" d="M124,242c0,0.7-0.1,1.4-0.4,2c-0.2,0.6-0.6,1.2-1.1,1.6c-0.6,0.6-1.2,1-2,1.3c-0.8,0.3-1.8,0.4-2.9,0.4h-2.2
			v6.2h-2.2v-16.6h4.5c1,0,1.8,0.1,2.5,0.2s1.3,0.4,1.8,0.8c0.6,0.4,1.1,1,1.4,1.6C123.9,240.2,124,241,124,242z M121.8,242
			c0-0.6-0.1-1.1-0.3-1.5c-0.2-0.4-0.5-0.8-0.9-1c-0.3-0.2-0.8-0.4-1.2-0.5s-1-0.1-1.7-0.1h-2.2v6.6h1.9c0.9,0,1.6-0.1,2.2-0.2
			c0.6-0.2,1-0.4,1.3-0.8c0.3-0.3,0.6-0.7,0.7-1.1C121.7,243,121.8,242.5,121.8,242z"/>
		<path class="st2" d="M139,248.8c0,0.7-0.1,1.3-0.4,1.9c-0.3,0.6-0.7,1.2-1.3,1.6c-0.6,0.5-1.3,0.8-2.1,1.1s-1.7,0.4-2.9,0.4
			c-1.2,0-2.3-0.1-3.2-0.3c-0.9-0.2-1.9-0.6-2.9-1v-2.8h0.2c0.8,0.7,1.8,1.2,2.9,1.6c1.1,0.4,2.1,0.6,3.1,0.6c1.4,0,2.4-0.2,3.2-0.8
			c0.8-0.5,1.1-1.2,1.1-2c0-0.7-0.2-1.3-0.6-1.6c-0.3-0.3-0.9-0.6-1.7-0.8c-0.6-0.1-1.2-0.3-1.8-0.4c-0.7-0.1-1.3-0.2-2.1-0.4
			c-1.5-0.3-2.6-0.8-3.3-1.6c-0.7-0.8-1.1-1.7-1.1-2.9c0-1.4,0.6-2.5,1.8-3.4c1.2-0.9,2.7-1.3,4.5-1.3c1.2,0,2.2,0.1,3.2,0.3
			c1,0.2,1.8,0.5,2.6,0.8v2.6h-0.1c-0.6-0.5-1.4-1-2.5-1.3c-1-0.3-2.1-0.5-3.1-0.5c-1.2,0-2.1,0.2-2.8,0.7c-0.7,0.5-1.1,1.1-1.1,1.9
			c0,0.7,0.2,1.2,0.5,1.6c0.3,0.4,1,0.7,1.9,0.9c0.5,0.1,1.1,0.2,2,0.4c0.9,0.1,1.6,0.3,2.2,0.4c1.2,0.3,2.2,0.8,2.8,1.5
			C138.7,246.7,139,247.6,139,248.8z"/>
		<path class="st2" d="M154.6,253.5h-12.9v-2l10.1-12.6h-9.8v-2h12.3v2l-10.2,12.6h10.5V253.5z"/>
		<path class="st2" d="M170.2,238.9c0.7,0.7,1.2,1.7,1.6,2.7c0.3,1.1,0.6,2.3,0.6,3.7c0,1.4-0.2,2.6-0.6,3.7c-0.4,1.1-0.9,2-1.6,2.7
			c-0.7,0.8-1.5,1.3-2.4,1.7c-0.9,0.4-2,0.6-3.2,0.6c-1.2,0-2.2-0.2-3.2-0.6c-1-0.4-1.8-0.9-2.4-1.7c-0.7-0.7-1.2-1.6-1.6-2.7
			c-0.3-1.1-0.6-2.3-0.6-3.7c0-1.3,0.2-2.6,0.5-3.6s0.9-2,1.6-2.8c0.7-0.7,1.4-1.3,2.4-1.7c1-0.4,2-0.6,3.2-0.6
			c1.2,0,2.2,0.2,3.2,0.6C168.8,237.6,169.6,238.1,170.2,238.9z M170,245.2c0-2.1-0.5-3.8-1.4-5c-1-1.2-2.3-1.8-3.9-1.8
			c-1.7,0-3,0.6-4,1.8c-1,1.2-1.4,2.8-1.4,5c0,2.2,0.5,3.8,1.5,5c1,1.1,2.3,1.7,3.9,1.7c1.7,0,3-0.6,3.9-1.7
			C169.5,249.1,170,247.4,170,245.2z"/>
	</g>
</g>
</svg>
