<?xml version="1.0" encoding="utf-8"?>
<!-- Generator: Adobe Illustrator 27.9.0, SVG Export Plug-In . SVG Version: 6.00 Build 0)  -->
<svg version="1.1" id="Capa_1" xmlns="http://www.w3.org/2000/svg" xmlns:xlink="http://www.w3.org/1999/xlink" x="0px" y="0px"
	 viewBox="0 0 267.7 303.2" style="enable-background:new 0 0 267.7 303.2;" xml:space="preserve">
<style type="text/css">
	.st0{fill:#FF0000;}
</style>
<path class="st0" d="M169.5,151.1c26.3,17.5,34.6,42.1,30.1,71.5c-2.2,14.8-11.8,25.1-24.5,32.3c-29.7,16.9-72.7,10.6-96.5-14
	c-20.8-21.5-23.3-61-4.7-84.5c4.6-5.8,11.3-10.1,17.1-15.1c-4-4.8-9-10-13.2-15.8c-18-24.9-14.4-51,9.2-68.8c2.9-2.2,5.9-4.3,9.1-6
	c23.2-12.4,47.7-15.9,72.7-7.4c32.8,11.2,42.3,31.8,35.1,63.1C199.5,126.2,189.4,142.1,169.5,151.1z M159.6,89.1
	c-1.2-9.5-5.8-15.6-14.3-18.1c-15.2-4.3-36.9,6.9-42.2,21.8c-3.6,10.2,1.2,19.6,12.1,22.5c14.4,3.8,27-0.1,36.7-11.1
	C155.5,100.1,157.1,94.2,159.6,89.1z M130.1,164.3c-11.7,1.1-23.3,7.4-30.6,20.5c-5.4,9.7-1.7,19.5,8.5,24.1
	c14.9,6.6,36.1-1.2,43.1-16C158.4,177.5,150.1,164.4,130.1,164.3z"/>
</svg>
