<?xml version="1.0" encoding="utf-8"?>
<!-- Generator: Adobe Illustrator 27.9.0, SVG Export Plug-In . SVG Version: 6.00 Build 0)  -->
<svg version="1.1" id="Capa_1" xmlns="http://www.w3.org/2000/svg" xmlns:xlink="http://www.w3.org/1999/xlink" x="0px" y="0px"
	 viewBox="0 0 267.7 303.2" style="enable-background:new 0 0 267.7 303.2;" xml:space="preserve">
<style type="text/css">
	.st0{fill:#FFB02A;}
</style>
<path class="st0" d="M172.3,181.3c9.6-0.7,17.4-1.7,25.3-1.7c30.9,0,24.7-0.3,25.1,23.8c0.3,15.8-1.7,31.6-3.4,47.3
	c-0.3,2.9-4.1,7.2-7,7.8c-12.9,2.9-26,6.3-39.1,6.5c-40.4,0.4-80.8-0.7-121.1-1.1c-5.5-0.1-8.2-3-7.9-8.2
	c0.5-10.1,1.3-20.1,2.1-30.2c0.1-1.2,1-2.6,1.8-3.6c22.7-27.1,45.4-54.1,68.3-81c3.7-4.4,8.1-8.1,12.2-12.2
	c3.4-3.4,5.1-7.9,1.8-11.7c-3.6-4.2-8.7-3.4-13-0.1c-6.2,4.6-7.3,10.6-3.1,19.4c-12.4,8.1-25.4,15-39.9,18.7
	c-6.5,1.7-12.6-3-16-11.4c-6.6-16.2-4.6-32.5,1.1-48.4c17.4-48.2,77.2-71,122.5-46.9c26.9,14.3,36.7,37.9,29.1,69.2
	c-5.3,21.5-16.8,39.5-31.5,55.7C177.4,175.5,175.4,177.8,172.3,181.3z"/>
</svg>
