<?xml version="1.0" encoding="utf-8"?>
<!-- Generator: Adobe Illustrator 27.9.0, SVG Export Plug-In . SVG Version: 6.00 Build 0)  -->
<svg version="1.1" id="Capa_1" xmlns="http://www.w3.org/2000/svg" xmlns:xlink="http://www.w3.org/1999/xlink" x="0px" y="0px"
	 viewBox="0 0 267.7 303.2" style="enable-background:new 0 0 267.7 303.2;" xml:space="preserve">
<style type="text/css">
	.st0{fill:#FFFF00;}
</style>
<path class="st0" d="M132.4,120.5c-19.4,0-37,0.6-54.6-0.3c-8-0.4-15.9-3.4-23.7-5.8c-1.9-0.6-4.1-3.6-4.2-5.6
	c-1.3-19.4-2.2-38.9-3.3-58.3c-0.4-6.2,2.5-8.3,8.4-8c33.3,1.7,66.6,3.3,100,4.9c22.5,1.1,45.1,2.3,67.6,3.4
	c2.6,0.1,5.2-0.1,7.7,0.4c7.3,1.4,10.6,6.6,7.7,13.4c-9.6,21.9-19.6,43.6-29.6,65.4c-8.2,17.9-15.9,36.1-25.2,53.5
	c-7.7,14.5-17.1,28-25.9,41.9c-8.4,13.3-17.2,26.3-25.5,39.7c-2.7,4.3-5.7,6.4-10.3,4.6c-17-6.6-34.1-13.2-50.9-20.3
	c-5.6-2.4-6.2-7.2-2.6-13.8c15.6-28.4,31.3-56.8,47.1-85.1C120.2,141.1,125.7,132.1,132.4,120.5z"/>
</svg>
