<?xml version="1.0" encoding="utf-8"?>
<!-- Generator: Adobe Illustrator 27.9.0, SVG Export Plug-In . SVG Version: 6.00 Build 0)  -->
<svg version="1.1" id="Capa_1" xmlns="http://www.w3.org/2000/svg" xmlns:xlink="http://www.w3.org/1999/xlink" x="0px" y="0px"
	 viewBox="0 0 267.7 303.2" style="enable-background:new 0 0 267.7 303.2;" xml:space="preserve">
<style type="text/css">
	.st0{fill:#00AAF7;}
</style>
<path class="st0" d="M116.6,116.4c8.6,1.1,16,2,23.2,2.9c0-23.4,0.2-45.7-0.1-68c-0.1-5.8,1-8.7,7.7-9.1c12.4-0.7,24.7-2.9,37.1-3.7
	c10.1-0.6,15,3.5,16.1,14c1.3,12.4,1.3,24.9,2,37.4c0.3,5.2,0.9,10.5,1.3,15.6c2.9,0,4.9-0.2,6.9,0c6.1,0.6,10.5,3,10.8,10.1
	c0.9,16.8,2,33.7,3.1,50.5c0.3,4.9-2.2,6.8-6.7,6.4c-3.2-0.2-6.3-0.6-10.2-1c1,8.8,2.4,16.9,2.7,25.1c0.5,18.7,0.4,37.4,0.7,56.2
	c0.1,5.9-2.3,8.1-8.3,8c-15.7-0.3-31.4,0.1-47.1-0.1c-11.2-0.2-13.1-3.1-13.1-14.2c0-20.1-0.8-40.2-0.9-60.3c0-5.6-3.4-5.6-7.2-5.8
	c-18.2-1-36.5-1.8-54.7-3c-7.8-0.5-15.6-1.5-23.4-2.9c-10.1-1.8-12.5-6.4-10.2-16.6c4.1-17.5,7.1-35.3,12-52.6
	C62,93.4,67.4,82,72.5,70.7c0.9-1.9,5.3-4.2,6.9-3.5c12.9,5.4,26.1,10.6,38.1,17.6c9.6,5.6,9.4,8.8,4.8,19.1
	C120.6,107.6,118.9,111.4,116.6,116.4z"/>
</svg>
